<?xml version="1.0" standalone="no"?>
<!DOCTYPE svg PUBLIC "-//W3C//DTD SVG 1.1//EN" "http://www.w3.org/Graphics/SVG/1.1/DTD/svg11.dtd" >
<svg xmlns="http://www.w3.org/2000/svg">
<metadata>
This is a custom SVG webfont generated by Font Squirrel.
Copyright   : COPYRIGHT ESSELTE LETRASET LTD 1990 
</metadata>
<defs>
<font id="BrightonMediumLETPlain" horiz-adv-x="819" >
<font-face units-per-em="2048" ascent="1638" descent="-410" />
<missing-glyph horiz-adv-x="410" />
<glyph unicode=" "  horiz-adv-x="410" />
<glyph unicode="&#x09;" horiz-adv-x="410" />
<glyph unicode="&#xa0;" horiz-adv-x="410" />
<glyph unicode="!" horiz-adv-x="539" d="M137 105q0 56 39 95t93 39t94 -38q39 -37 39 -94q0 -55 -39 -94t-94 -39q-53 0 -92 39q-40 37 -40 92zM147 1267q0 68 30 98q29 30 94 30q61 0 90 -29t29 -91q0 -42 -3 -89l-51 -756q-4 -60 -19 -88q-15 -26 -48 -26q-32 0 -46 26q-14 25 -19 88l-52 756q-5 62 -5 81z " />
<glyph unicode="&#x22;" horiz-adv-x="676" d="M96 1275q0 51 30 84t77 33q44 0 73 -32t29 -82q0 -16 -11 -85l-44 -261q-15 -83 -51 -83q-33 0 -45 65l-3 22l-43 250l-5 31q-7 43 -7 58zM371 1275q0 51 30 84t77 33q45 0 74 -32t29 -82q0 -16 -11 -85l-44 -261q-15 -83 -51 -83q-34 0 -45 65l-4 22l-43 250l-4 31 q-8 46 -8 58z" />
<glyph unicode="#" horiz-adv-x="1215" d="M61 40q0 34 38 37l38 4q56 6 56 91v1021q0 49 -11 69q-10 19 -40 22l-40 4q-16 2 -27 12q-10 9 -10 25q0 18 14 29t39 11h369q25 0 39 -10q14 -11 14 -30q0 -16 -10 -25q-11 -11 -28 -12l-39 -4q-56 -6 -56 -91v-1021q0 -85 56 -91l36 -4q11 -2 20 -6q10 -7 14 -13 q4 -7 4 -18q0 -18 -14 -29q-16 -11 -39 -11h-369q-54 0 -54 40zM430 721q0 16 17 36l10 12l331 416q30 38 30 62q0 34 -53 40q-51 5 -51 40q0 23 14 31q13 7 52 7h288q54 0 54 -37q0 -21 -12 -30q-15 -10 -55 -17q-67 -13 -121 -84l-28 -37l-291 -366l463 -639 q17 -24 79 -100q60 -73 148 -145q30 -24 37 -33q6 -8 6 -20q0 -45 -64 -45q-109 0 -236 97q-91 70 -174 177q-35 45 -121 166l-292 410q-31 41 -31 59z" />
<glyph unicode="$" horiz-adv-x="973" d="M68 250q0 84 48 142q46 58 113 58q26 0 44 -12q17 -14 17 -35q0 -15 -6 -27l-16 -33q-18 -37 -18 -80q0 -71 48 -119q47 -47 128 -58v559l-44 34q-107 82 -121 95q-27 23 -64 60q-103 112 -103 242q0 88 42 155q41 68 118 109q74 39 172 44v105q0 13 9 20q10 8 19 8 l67 -1q27 0 27 -27v-105q152 -8 240 -76q87 -69 87 -185q0 -55 -26 -105q-27 -49 -70 -79t-93 -30q-28 0 -45 15q-18 14 -18 33q0 13 5 23q8 14 22 31q40 47 40 108t-37 101t-105 49v-463l51 -38q92 -66 133 -103q42 -37 75 -78q97 -118 97 -261q0 -92 -40 -169 q-40 -78 -111 -123q-40 -26 -89 -41q-45 -14 -117 -21l-1 -136q0 -27 -27 -27h-66q-27 1 -27 28l-1 135q-173 16 -265 87t-92 191zM296 1101q0 -55 30 -102q28 -47 100 -107v377q-61 -13 -96 -58q-34 -44 -34 -110zM548 86q78 15 122 72q43 56 43 145q0 44 -11 80 q-12 36 -40 69q-26 31 -75 74l-39 34v-474z" />
<glyph unicode="%" horiz-adv-x="1544" d="M61 1049q0 153 91 244q90 92 239 92q97 0 170 -40q33 -17 65 -49t49 -65q40 -73 40 -171q0 -103 -40 -179q-41 -78 -114 -118q-76 -41 -175 -41q-145 0 -235 91q-90 92 -90 236zM235 1049q0 -101 43 -165q44 -65 110 -65q68 0 112 65q43 64 43 170t-41 171 q-42 63 -111 63q-47 0 -82 -29t-55 -84q-19 -54 -19 -126zM281 19q0 10 17 38l781 1272q16 27 26 34q10 5 38 5h75q40 0 40 -17q0 -13 -16 -38l-775 -1265q-10 -16 -21 -31q-9 -10 -20 -12q-10 -3 -38 -3h-67q-40 0 -40 17zM830 315q0 150 90 243q89 92 236 92q99 0 173 -40 q33 -17 65 -49t49 -65q40 -73 40 -171q0 -103 -41 -180t-115 -118q-76 -41 -179 -41q-91 0 -165 42q-74 41 -113 116q-40 73 -40 171zM1003 317q0 -100 44 -167q44 -66 110 -66q70 0 112 64q42 65 42 170q0 109 -42 172q-44 62 -115 62q-67 0 -109 -66t-42 -169z" />
<glyph unicode="&#x26;" horiz-adv-x="1289" d="M68 385q0 71 21 132t61 113q41 51 99 90q57 38 123 58q-79 101 -119 185q-37 78 -37 147q0 84 41 149t115 99t175 34q171 0 266 -71t95 -200q0 -65 -35 -126q-34 -61 -93 -97q-58 -37 -122 -37q-60 0 -60 50q0 23 18 33l21 12q43 25 67 69t24 91q0 48 -20 85 q-21 35 -57 56t-83 21q-70 0 -114 -43q-46 -43 -46 -108q0 -86 89 -207l428 -571q40 111 40 191q0 46 -15 62q-17 17 -62 21q-32 3 -46 12q-13 9 -13 30q0 18 13 28q11 10 31 10h24h258h31q44 0 44 -37q0 -33 -51 -39q-37 -4 -52 -11q-15 -8 -19 -25q-6 -18 -15 -80 q-15 -105 -34 -164q-20 -64 -49 -110l66 -90q25 -34 51 -49q24 -15 62 -21q45 -6 45 -39q0 -23 -13 -30q-14 -8 -55 -8h-143q-31 0 -38 1q-10 1 -22 6q-13 5 -21 14q-3 4 -8 10l-10 10l-39 50q-76 -63 -156 -90q-78 -28 -185 -28q-102 0 -191 30q-91 30 -153 85 q-63 53 -98 130q-34 74 -34 167zM269 413q0 -135 91 -226q90 -92 225 -92q63 0 117 21q53 21 111 72l-369 491q-175 -91 -175 -266z" />
<glyph unicode="'" horiz-adv-x="400" d="M96 1275q0 51 30 84t77 33q44 0 73 -32t29 -82q0 -16 -11 -87l-44 -260q-15 -84 -51 -84q-33 0 -45 66l-3 21l-43 251l-5 30q-7 43 -7 60z" />
<glyph unicode="(" horiz-adv-x="715" d="M137 675q0 233 77 431q76 194 223 337q74 71 132 108q59 38 87 38q24 0 38 -13q14 -14 14 -33q0 -28 -33 -55l-32 -26q-44 -36 -82 -85q-45 -58 -76 -111q-34 -57 -60 -119q-86 -207 -86 -474q0 -129 25 -251q25 -128 70 -229q40 -90 94 -164q59 -81 110 -121l36 -29 q32 -26 32 -50q0 -20 -14 -37q-13 -16 -34 -16q-32 0 -100 45q-66 44 -133 111q-141 144 -214 333q-74 192 -74 410z" />
<glyph unicode=")" horiz-adv-x="715" d="M7 1534q0 21 15 36t38 15q27 0 77 -31q54 -34 101 -76q108 -95 185 -219q76 -124 117 -272q39 -147 39 -303q0 -140 -36 -283t-95 -251q-115 -214 -313 -342q-47 -32 -77 -32q-20 0 -35 15q-16 13 -16 34q0 23 23 43l55 48q86 74 154 195q66 120 102 266q35 148 35 305 q0 247 -84 460q-85 212 -225 321q-48 39 -53 46q-7 7 -7 25z" />
<glyph unicode="*" horiz-adv-x="721" d="M82 1207q0 24 21 55q26 36 52 36q19 0 34 -9q14 -9 41 -38l111 -115l-43 149q-11 39 -11 52q0 56 68 56q82 0 82 -51q0 -17 -10 -50l-48 -163l115 122q29 32 42 41q11 6 30 6q26 0 50 -28q23 -29 23 -64q0 -23 -19 -36q-18 -13 -75 -28l-148 -39l143 -40l55 -16 q42 -15 42 -48q0 -31 -24 -61q-25 -31 -50 -31q-17 0 -32 12q-15 10 -55 51l-97 102l40 -154q14 -58 14 -67q0 -49 -70 -49q-77 0 -77 53q0 18 12 63l43 154l-105 -113q-25 -28 -41 -39t-30 -11q-30 0 -55 40q-19 31 -19 53q0 23 17 37q16 13 58 24l159 40l-159 41 q-52 13 -68 26q-16 10 -16 37z" />
<glyph unicode="+" horiz-adv-x="1219" d="M61 40q0 34 38 37l39 4q56 6 56 91v923v35q0 38 -11 52q-10 12 -46 17q-36 6 -36 39q0 39 72 73q31 16 82.5 32t104.5 26q118 23 231 23q150 0 253 -42t156 -125t53 -202q0 -107 -47 -189q-48 -82 -138 -127q-57 -28 -140 -42l323 -486q76 -114 132 -179q53 -62 107 -98 q45 -29 45 -55q0 -41 -63 -41q-32 0 -86 18q-54 16 -99 41q-109 63 -204 204l-363 545q-29 44 -29 70q0 52 59 58q52 6 78 11q35 6 61 17q23 11 46 29q31 24 54 59q22 33 34 78q11 44 11 91q0 80 -30 138q-29 57 -85 89q-55 31 -130 31q-50 0 -92 -14q-42 -16 -61 -40 q-19 -21 -24 -45q-6 -25 -6 -89v-925q0 -85 56 -91l37 -4q17 -1 28 -11q10 -10 10 -26q0 -18 -14 -29q-16 -11 -40 -11h-368q-54 0 -54 40z" />
<glyph unicode="," horiz-adv-x="482" d="M113 119q0 58 34 95q35 36 90 36q65 0 101 -46t36 -131q0 -79 -34 -160q-34 -83 -98 -156q-52 -60 -85 -60q-17 0 -28 12q-11 13 -11 28q0 17 14 34l28 33q34 39 61 89q24 46 24 76q0 24 -23 27l-24 2q-39 4 -62 39q-23 34 -23 82z" />
<glyph unicode="-" horiz-adv-x="783" d="M82 424v82q0 27 27 27h564q28 0 28 -27v-82q0 -9 -8 -19q-7 -9 -20 -9h-564q-11 0 -19 9q-8 10 -8 19z" />
<glyph unicode="." horiz-adv-x="482" d="M109 121q0 51 39 88q38 37 92 37q53 0 94 -38q39 -39 39 -91q0 -56 -38 -94q-39 -39 -93 -39q-57 0 -94 40q-39 41 -39 97z" />
<glyph unicode="/" horiz-adv-x="862" d="M0 -117q0 14 10 38l676 1545q10 27 20 33q8 6 37 6h75q40 0 43 -17q0 -15 -9 -38l-671 -1538q-13 -32 -18 -36q-5 -7 -15 -8q-10 -3 -38 -3h-67q-38 0 -43 18z" />
<glyph unicode="0" horiz-adv-x="1245" d="M61 683q0 155 40 288q39 135 114 235q67 91 171 139q105 47 232 47q271 0 412 -184q48 -63 82 -145q32 -77 53 -179q18 -97 18 -201q0 -102 -19 -200q-20 -105 -56 -186q-37 -85 -88 -148q-71 -88 -171 -131q-100 -45 -227 -45q-133 0 -240 51t-177 149q-44 62 -79 148 q-32 80 -49 174q-16 89 -16 188zM284 679q0 -183 42 -318q40 -133 118 -208q76 -73 180 -73q76 0 139 42q62 40 108 121q45 83 67 191q22 109 22 248q0 241 -76 412q-41 94 -108 143q-68 50 -152 50q-105 0 -181 -73q-77 -74 -118 -211q-41 -140 -41 -324z" />
<glyph unicode="1" horiz-adv-x="612" d="M55 1043q0 15 15 36t64 70q11 11 48 54l12 15l10 12l9 11l17 21l11 14q14 19 29 36l14 18q28 39 43 50q17 12 35 12q50 0 50 -81v-1139q0 -85 56 -91l38 -4q11 -1 20 -7q9 -5 13 -12t4 -18q0 -18 -14 -29t-39 -11h-354q-54 0 -54 40q0 34 38 37l38 4q55 6 55 91v915 q-76 -91 -114 -91q-15 0 -29 15q-15 14 -15 32z" />
<glyph unicode="2" horiz-adv-x="941" d="M55 51q0 45 37 123q40 85 103 178q65 98 132 174l157 177q84 95 121 176q38 84 38 172q0 108 -50 170q-51 61 -143 61q-78 0 -131 -50q-53 -51 -53 -132q0 -40 15 -70q14 -29 53 -65q27 -22 27 -44q0 -29 -25 -45q-25 -18 -63 -18q-89 0 -149 67q-61 67 -61 165 q0 88 50 158t141 107q89 37 210 37q125 0 214 -40t138 -118q47 -77 47 -184q0 -142 -95 -273q-40 -54 -67 -81q-33 -33 -129 -119q-120 -106 -193 -199q-71 -91 -122 -204h373q68 0 91 4q25 5 41 21q19 19 43 60q18 29 44 29q16 0 26 -10q11 -11 11 -26q0 -9 -7 -30 l-57 -159q-16 -44 -31 -54q-15 -9 -69 -9h-586q-41 0 -61 12t-20 39z" />
<glyph unicode="3" horiz-adv-x="861" d="M14 1117q0 10 3 19l10 27l55 149l10 27q9 17 23 22q12 4 57 4h508q64 0 83 -9q20 -11 20 -40q0 -22 -38 -69l-249 -316q110 -23 170 -66q64 -47 99 -119q35 -75 35 -158q0 -148 -85 -279q-84 -132 -238 -226q-81 -51 -180 -85q-99 -33 -168 -33q-74 0 -74 45q0 38 55 56 q95 32 133 50q48 22 101 57q68 45 125 111q54 63 81 131t27 140q0 127 -91 185q-39 25 -126 38q-65 11 -65 65q0 20 16 42l19 25l220 284h-322q-53 0 -73 -13t-55 -65q-23 -35 -48 -35q-16 0 -27 11t-11 25z" />
<glyph unicode="4" horiz-adv-x="1029" d="M41 373v51q0 35 11 54l15 24l495 831l14 25q11 21 24 25q13 5 46 5h65q32 0 44 -4q13 -4 18 -19q4 -12 4 -47v-847h11q38 0 56 9q17 8 46 43q29 33 46 33q16 0 27 -10q11 -11 11 -25q0 -11 -12 -38l-54 -121q-13 -29 -28 -38q-14 -8 -56 -8l-47 1v-145q0 -85 56 -91 l36 -4q17 -1 28 -11q10 -10 10 -26q0 -18 -14 -29q-16 -11 -39 -11h-368q-54 0 -54 40q0 16 12 26q13 11 26 11l54 4q56 5 56 91v145h-477q-33 0 -44 3q-11 2 -14 14q-4 11 -4 39zM170 471h410v692z" />
<glyph unicode="5" horiz-adv-x="886" d="M41 221q0 66 41 119q41 51 94 51q27 0 46 -13q18 -13 18 -31q0 -5 -5 -20l-12 -24q-12 -25 -12 -58q0 -67 52 -110q51 -45 127 -45q71 0 120 42q50 41 76 121q26 81 26 191q0 103 -26 181q-27 76 -75 118q-50 41 -114 41q-48 0 -87 -13q-43 -14 -98 -48q-32 -19 -53 -19 q-34 0 -52 24q-19 22 -19 61q0 19 6 62l58 444q4 36 11 51q4 13 20 16q15 3 61 3h389q47 0 63 6q17 5 48 33q15 13 32 25q11 6 22 6q15 0 24 -9t9 -24q0 -12 -9 -32l-49 -114l-11 -28q-14 -25 -28 -29q-17 -5 -74 -5h-408l-43 -343q116 76 238 76q113 0 198 -57 q86 -59 132 -164t46 -243q0 -147 -53 -258q-53 -110 -155 -169q-100 -58 -239 -58q-99 0 -174 31q-79 30 -119 85q-42 54 -42 127z" />
<glyph unicode="6" horiz-adv-x="1002" d="M61 483q0 104 25 210q24 110 70 210q47 105 109 190q67 91 145 164q71 65 138 105t104 40q25 0 38 -15q14 -16 14 -36q0 -13 -5 -21q-10 -13 -34 -34q-98 -90 -154 -156q-55 -65 -100 -148q-130 -236 -130 -507q0 -130 28 -215q27 -87 81 -132q53 -46 129 -46 q102 0 160 84q58 83 58 234q0 127 -49 197t-139 70q-40 0 -89 -16l-31 -9q-10 -3 -21 -3q-19 0 -33 14t-14 35q0 42 69 75q69 32 163 32q104 0 185 -48q82 -48 125 -135q44 -90 44 -201q0 -132 -53 -233t-149 -155q-95 -55 -225 -55q-99 0 -186 35q-86 35 -146 101 q-60 65 -94 161q-33 95 -33 208z" />
<glyph unicode="7" horiz-adv-x="840" d="M34 1119q0 7 7 32l42 155q12 42 27 51q14 8 68 8h521h44q34 0 49 -18q14 -19 14 -63q0 -57 -13 -97q-18 -67 -42 -113q-23 -45 -104 -173q-99 -159 -136 -269q-39 -112 -39 -245q0 -134 39 -284q8 -38 8 -47q0 -22 -14 -34q-16 -13 -51 -23q-78 -22 -109 -22 q-22 0 -33 12q-11 11 -23 49q-14 50 -23 111q-9 65 -9 132q0 86 17.5 174t52.5 172q34 87 161 275q72 106 101 165q30 60 42 127h-364q-72 0 -93 -8t-47 -50q-19 -32 -30 -43q-10 -10 -27 -10q-16 0 -26 10t-10 26z" />
<glyph unicode="8" horiz-adv-x="999" d="M61 344q0 80 37 151q36 71 96 114q59 43 128 43q26 0 44 -15q18 -16 18 -39q0 -21 -23 -46l-26 -30q-31 -34 -49 -85q-19 -51 -19 -99q0 -108 67 -176q67 -70 172 -70q96 0 159 64q62 64 62 160q0 55 -21 97t-72 90q-52 48 -165 132l-100 73q-144 107 -201 189 q-58 82 -58 183q0 95 48 165q49 72 138 109q90 38 208 38q115 0 203 -36q89 -37 135 -105q47 -68 47 -156q0 -73 -33 -135t-88 -99q-56 -38 -120 -38q-32 0 -52 14t-20 36q0 20 28 39q91 58 91 187q0 84 -50 134t-134 50q-85 0 -139 -48q-54 -49 -54 -126q0 -113 118 -207 q26 -21 80 -61q87 -63 97 -71l87 -61q83 -58 137 -117q50 -56 76 -119q25 -62 25 -133q0 -81 -29 -148q-30 -67 -88 -115q-57 -48 -139 -74q-79 -25 -177 -25q-133 0 -232 46q-101 45 -156 130q-56 85 -56 190z" />
<glyph unicode="9" horiz-adv-x="1001" d="M55 957q0 98 31 178q29 79 89 139q57 57 140 88q80 30 178 30q103 0 187 -34q83 -34 142 -97q55 -63 87 -155q31 -92 31 -212q0 -93 -19 -182q-19 -92 -60 -184q-41 -94 -97 -177q-57 -85 -131 -164q-63 -66 -143 -127q-80 -60 -128 -79q-24 -9 -39 -9q-26 0 -43 15 q-18 15 -18 39q0 16 9 29q7 12 29 31q90 80 151 144q52 56 97 121q42 63 77 137q48 101 70 197q23 100 23 196q0 172 -60 287q-26 52 -68 78q-43 27 -98 27q-98 0 -157 -84q-58 -85 -58 -229q0 -122 51 -196q49 -73 135 -73q30 0 66 14q30 11 41 11q23 0 40 -16 q17 -17 17 -35q0 -43 -61 -73q-61 -31 -146 -31q-109 0 -192 50q-84 50 -128 140q-45 90 -45 206z" />
<glyph unicode=":" horiz-adv-x="482" d="M109 733q0 51 39 88q38 37 92 37q53 0 94 -38q39 -39 39 -91q0 -56 -38 -94q-39 -39 -93 -39q-57 0 -94 40q-39 41 -39 97zM109 121q0 51 39 88q38 37 92 37q53 0 94 -38q39 -39 39 -91q0 -56 -38 -94q-39 -39 -93 -39q-57 0 -94 40q-39 41 -39 97z" />
<glyph unicode=";" horiz-adv-x="482" d="M109 733q0 51 39 88q38 37 92 37q53 0 94 -38q39 -39 39 -91q0 -36 -17 -67q-18 -30 -48 -48q-31 -18 -65 -18q-56 0 -95 40q-39 41 -39 97zM113 119q0 58 34 95q35 36 90 36q65 0 101 -46t36 -131q0 -79 -34 -160q-34 -83 -98 -156q-52 -60 -85 -60q-17 0 -28 12 q-11 13 -11 28q0 17 14 34l28 33q34 39 61 89q24 46 24 76q0 24 -23 27l-24 2q-39 4 -62 39q-23 34 -23 82z" />
<glyph unicode="&#x3c;" horiz-adv-x="998" d="M34 795q0 22 15 32q14 9 48 9h70v311q0 120 61 181q62 62 179 62q51 0 98 -16q50 -17 77 -40q29 -26 29 -52q0 -18 -14 -32t-29 -14q-13 0 -27 10l-32 20q-34 22 -68 22q-52 0 -75 -30q-22 -31 -22 -101v-321h193h48q126 2 203 17l18 2q21 0 29 -14q6 -15 6 -58v-628 q0 -46 8 -64q7 -16 34 -19l32 -2q35 -3 35 -36q0 -34 -36 -34h-323q-36 0 -36 34q0 33 35 36l30 2q26 3 35 19q8 18 8 64v540q0 38 -17 50q-16 12 -72 12h-170q-41 0 -50 -14q-10 -13 -10 -69v-519q0 -48 9 -65t34 -18l57 -2q36 -1 36 -36q0 -34 -36 -34h-363q-36 0 -36 34 q0 33 35 36l44 2q28 3 35 19q8 16 8 64v510q0 60 -10 76t-46 16h-25q-52 0 -52 38z" />
<glyph unicode="=" horiz-adv-x="568" d="M-205 19q0 10 17 38l781 1272q16 27 26 34q10 5 38 5h75q41 0 41 -17q0 -10 -17 -38l-775 -1265q-10 -16 -21 -31q-9 -10 -20 -12q-11 -3 -38 -3h-67q-40 0 -40 17z" />
<glyph unicode="&#x3e;" horiz-adv-x="998" d="M34 795q0 22 15 32q14 9 48 9h70v311q0 121 69 182q68 61 214 61q38 0 81 -9q29 -5 39 -7q12 -3 20 -4.5t11 -2.5q33 -5 47 -5q16 0 43 5l70 14q23 5 41 5q24 0 31 -12q8 -13 8 -49v-1170q0 -47 9 -64q7 -16 34 -19l31 -2q35 -3 35 -36q0 -34 -36 -34h-323q-36 0 -36 34 q0 33 35 36l30 2q26 3 35 19q8 18 8 64v964q0 55 -3 76q-5 22 -16 35q-12 13 -40 28q-25 12 -59 21q-33 9 -63 9q-79 0 -108 -30q-30 -30 -30 -101v-321h106q38 0 54 -8q14 -8 14 -30q0 -23 -15 -32t-58 -9h-41q-39 0 -50 -12q-10 -13 -10 -71v-519q0 -48 9 -65t34 -18 l57 -2q36 -1 36 -36q0 -34 -36 -34h-363q-36 0 -36 34q0 33 35 36l44 2q28 3 35 19q8 16 8 64v510q0 60 -10 76t-46 16h-25q-52 0 -52 38z" />
<glyph unicode="?" horiz-adv-x="838" d="M41 1099q0 134 102 213q101 79 277 79q183 0 280 -79t97 -226q0 -104 -63 -202q-41 -65 -137 -151q-36 -31 -50 -45l-11 -11l-13 -13q-18 -18 -27 -31q-11 -13 -19 -25q-47 -68 -47 -141q0 -24 7 -65q4 -20 4 -29q0 -22 -17 -39q-16 -16 -43 -16q-45 0 -82 64 q-38 65 -38 143q0 85 41 156q20 31 46 63q23 26 77 80q80 80 117 147q36 66 36 134q0 85 -44 135q-43 49 -120 49q-75 0 -122 -50t-47 -130q0 -79 53 -144q27 -33 27 -54q0 -25 -22 -41q-23 -17 -51 -17q-84 0 -147 75q-64 73 -64 171zM256 107q0 55 39 95q38 39 93 39 q56 0 94 -38t38 -94q0 -53 -39 -91q-41 -38 -93 -38q-55 0 -93 37q-39 38 -39 90z" />
<glyph unicode="@" horiz-adv-x="918" d="M55 34q0 33 35 36l32 2q26 3 35 19q8 18 8 64v997q0 48 -11 62q-11 13 -56 16q-40 3 -40 33q0 23 26 35l27 11l146 63q30 13 51 13t28 -12q7 -13 7 -46v-1172q0 -47 9 -64q7 -16 34 -19l30 -2q35 -3 35 -36q0 -34 -37 -34h-323q-36 0 -36 34zM369 449q0 17 27 48l169 197 q19 23 19 38q0 32 -51 35q-45 2 -45 33q0 22 13 29q12 6 54 6h229q40 0 52 -6q12 -7 12 -25q0 -19 -10 -25q-10 -7 -49 -12q-57 -7 -111 -72l-158 -188l251 -346q71 -96 89 -117q23 -28 51 -58q45 -45 101 -83q39 -26 39 -46q0 -16 -13 -26q-14 -11 -31 -11q-59 0 -142 46 q-64 35 -123 90t-115 128l-227 309l-19 26q-12 18 -12 30z" />
<glyph unicode="A" horiz-adv-x="1241" d="M27 39q0 34 47 45q42 9 59 24q16 15 30 56l380 1165q14 41 28 55q13 13 44 13q52 0 71 -61l386 -1172q21 -62 74 -76l31 -8q37 -10 37 -40q0 -40 -68 -40h-352q-35 0 -52 9q-16 7 -16 30q0 37 49 44l39 5q40 6 40 48q0 16 -10 47l-62 200q-14 44 -27 53q-15 9 -69 9h-231 q-54 0 -71 -12q-18 -14 -33 -64l-62 -205q-5 -20 -5 -31q0 -48 62 -53q31 -1 44 -10q12 -10 12 -32q0 -21 -14 -29q-15 -9 -47 -9h-251q-36 0 -50 9q-13 7 -13 30zM404 546h331l-168 514z" />
<glyph unicode="B" horiz-adv-x="1143" d="M75 113q0 35 32 41l30 7q19 4 26 23q7 18 7 66v866v21q0 38 -10 51q-10 12 -43 16q-38 8 -38 36q0 35 52 62q57 28 131 48q79 22 157 32q77 10 158 10q139 0 238 -40q100 -40 154 -117q54 -76 54 -179q0 -125 -78 -206t-221 -104q89 -9 156 -37t111 -73q91 -91 91 -249 q0 -98 -34 -173q-34 -74 -104 -131q-71 -56 -168 -83t-220 -27q-116 0 -241 24q-122 22 -191 58q-49 27 -49 58zM380 250q0 -91 32 -123q22 -20 71 -34q48 -14 100 -14q79 0 141 38q60 37 94 107q33 69 33 157q0 147 -73 226q-74 80 -214 83q-58 2 -74 11q-18 11 -18 42 q0 19 7 29q8 11 26 15q21 5 63 8q116 8 177 72t61 177q0 75 -28 130q-28 56 -81 84q-53 29 -128 29q-51 0 -95 -14q-42 -15 -64 -40q-17 -19 -23 -43q-7 -24 -7 -74v-866z" />
<glyph unicode="C" horiz-adv-x="1162" d="M61 678q0 161 43 291q42 131 123 227q80 97 192 146q114 50 245 50q100 0 191 -27q23 -6 36 -6q15 0 40 20q23 21 44 21q37 0 53 -49l61 -193q9 -25 9 -37q0 -17 -14 -31q-15 -15 -34 -15q-11 0 -22 8q-12 9 -32 30q-79 91 -150 130q-72 39 -161 39q-106 0 -186 -55 q-82 -55 -127 -159q-22 -52 -39 -116q-18 -70 -25 -133q-9 -70 -9 -136q0 -265 113 -423q113 -159 299 -159q57 0 109 15t99 46q50 34 95 79q28 28 52 28q23 0 39 -15q16 -16 16 -39q0 -61 -121 -146q-139 -97 -335 -97q-132 0 -244 50q-110 49 -193 145q-82 94 -124 225 q-43 128 -43 286z" />
<glyph unicode="D" horiz-adv-x="1333" d="M75 112q0 32 38 41t49 26q10 16 10 77v849v36q0 33 -10 43q-10 11 -45 15q-36 6 -36 39q0 20 16 36t54 34q80 39 203 61q130 23 247 23q321 0 480 -168q45 -48 82 -108q36 -63 59 -127t37 -142q12 -73 12 -158q0 -166 -53 -311q-52 -144 -150 -239q-55 -55 -133 -95 q-73 -37 -166 -54q-96 -17 -204 -17q-130 0 -240 19q-116 20 -181 52q-69 32 -69 68zM383 255q0 -53 6 -76q6 -22 23 -39q59 -56 185 -56q100 0 184 41q81 40 138 118q56 77 86 187t30 248q0 140 -29 256q-28 114 -84 192q-57 78 -135 118q-79 40 -182 40q-131 0 -184 -52 q-38 -38 -38 -135v-842z" />
<glyph unicode="E" horiz-adv-x="1028" d="M61 40q0 34 38 37l39 4q56 6 56 91v1021q0 83 -56 91l-33 4q-15 1 -26 12t-11 25q0 18 14 29t39 11h715h28q26 0 37 -8q11 -7 18 -33l42 -106q14 -36 14 -45q0 -17 -13 -29q-13 -13 -33 -13q-27 0 -50 35q-40 58 -83 79t-129 21h-159q-62 0 -82 -19q-22 -19 -22 -75v-351 h233q73 0 73 -50q0 -27 -18 -38q-18 -12 -58 -12h-137q-65 0 -78 -13q-15 -13 -15 -72v-441q0 -54 20 -71q20 -18 80 -18h172q79 0 114 7q40 6 64 25q23 16 59 60q27 36 40 47q12 9 31 9q18 0 31 -10t13 -26q0 -10 -9 -36l-55 -136q-13 -31 -27 -39q-13 -7 -61 -7h-761 q-54 0 -54 40z" />
<glyph unicode="F" horiz-adv-x="951" d="M61 40q0 34 38 37l34 4q60 8 60 91v1021q0 85 -56 91l-37 4q-38 3 -38 37q0 40 54 40h708q36 0 51 -5q13 -6 19 -24l45 -119q12 -30 12 -47t-13 -27q-14 -11 -34 -11q-23 0 -39 22l-19 25q-30 39 -55 58q-26 18 -59 24q-34 6 -105 6h-130q-43 0 -61 -6t-24 -22 q-7 -15 -7 -56v-360h230q40 0 57 -11q16 -10 16 -37t-16 -39q-16 -13 -56 -13h-146q-56 0 -70 -10q-15 -10 -15 -47v-31v-463q0 -86 65 -92l34 -2q45 -3 45 -38q0 -18 -14 -29q-16 -11 -39 -11h-381q-54 0 -54 40z" />
<glyph unicode="G" horiz-adv-x="1338" d="M61 668q0 163 45 298q45 134 130 231t202 146q118 50 263 50q127 0 229 -31q21 -7 34 -7q21 0 44 19q21 18 28 21q6 3 19 3q33 0 49 -49l62 -185q9 -28 9 -46t-14 -32q-13 -13 -33 -13q-13 0 -23 7q-12 7 -25 23q-76 92 -159 135q-82 42 -186 42q-100 0 -184 -41 q-84 -43 -140 -121q-58 -79 -88 -191q-31 -111 -31 -250q0 -183 55 -312q56 -133 158 -201q101 -70 244 -70q131 0 179 54q28 32 28 125v147q0 46 -15 68q-15 21 -48 24l-25 2q-43 3 -43 37q0 40 53 40h366q25 0 39 -10q14 -11 14 -30q0 -32 -44 -37l-26 -3q-33 -5 -46 -25 q-15 -21 -15 -66v-140v-36q1 -35 11 -48q7 -13 40 -21q40 -7 40 -40q0 -20 -21 -37q-22 -19 -72 -41q-81 -35 -197 -58q-113 -22 -226 -22q-214 0 -366 82q-154 82 -233 238q-81 156 -81 371z" />
<glyph unicode="H" horiz-adv-x="1328" d="M61 1325q0 40 54 40h370q25 0 39 -11t14 -29q0 -15 -10 -25t-27 -12l-40 -4q-55 -6 -55 -91v-372h516v372q0 83 -56 91l-33 4q-15 1 -26 12t-11 25q0 18 14 29t39 11h364q25 0 39 -10q14 -11 14 -30q0 -16 -10 -25q-11 -11 -28 -12l-37 -4q-56 -6 -56 -91v-1021 q0 -85 56 -91l38 -4q11 -1 20 -7q9 -5 13 -12t4 -18q0 -18 -14 -29t-39 -11h-365q-54 0 -54 40q0 34 38 37l34 4q56 8 56 91v455q0 66 -12 79q-14 14 -68 14h-356q-49 0 -64 -17q-16 -16 -16 -76v-455q0 -85 55 -91l36 -4q17 -1 28 -11q10 -10 10 -26q0 -18 -14 -29 q-16 -11 -40 -11h-366q-25 0 -39 11t-14 29q0 15 11 26q10 10 26 11l38 4q55 6 55 91v1021q0 85 -55 91l-38 4q-38 3 -38 37z" />
<glyph unicode="I" horiz-adv-x="596" d="M61 40q0 34 38 37l37 4q56 6 56 91v1021q0 83 -56 91l-34 4q-15 1 -26 12t-11 25q0 18 14 29t39 11h364q25 0 39 -10q14 -11 14 -30q0 -15 -10 -25t-28 -12l-36 -4q-56 -6 -56 -91v-1021q0 -83 56 -91l35 -4q11 -2 20 -6q10 -7 14 -13q4 -7 4 -18q0 -18 -14 -29 q-16 -11 -39 -11h-366q-54 0 -54 40z" />
<glyph unicode="J" horiz-adv-x="583" d="M49 1325q0 40 54 40h372q25 0 39 -10q14 -11 14 -30q0 -15 -10 -25t-28 -12l-35 -4q-56 -8 -56 -91v-918q0 -100 -9 -181q-9 -84 -28 -146q-19 -65 -53 -131q-29 -59 -62 -103t-65 -68q-31 -25 -59 -25q-17 0 -32 15q-16 13 -16 31q0 14 23 58q54 104 72 209 q17 110 17 331v928q0 85 -55 91l-45 4q-38 3 -38 37z" />
<glyph unicode="K" horiz-adv-x="1243" d="M61 40q0 34 38 37l35 4q56 8 56 91v1021q0 83 -56 91l-33 4q-38 3 -38 37q0 40 54 40h363q25 0 39 -10q14 -11 14 -30q0 -16 -10 -25q-11 -11 -28 -12l-37 -4q-55 -6 -55 -91v-1021q0 -85 55 -91l37 -4q17 -1 28 -11q10 -10 10 -26q0 -18 -14 -29q-16 -11 -39 -11h-365 q-54 0 -54 40zM426 721q0 18 32 59l336 421q19 23 19 45q0 36 -55 40q-49 3 -49 41t64 38h269h25q50 0 50 -37q0 -35 -55 -42q-41 -6 -70 -24q-30 -21 -62 -61l-319 -407l460 -644q30 -40 48 -52q20 -14 51 -17q59 -5 59 -42q0 -22 -15 -30q-15 -9 -50 -9h-175q-33 0 -47 3 q-12 1 -24 13q-10 9 -33 40l-431 605q-28 40 -28 60z" />
<glyph unicode="L" horiz-adv-x="1043" d="M61 40q0 34 38 37l39 4q55 6 55 91v1021q0 85 -55 91l-38 4q-38 3 -38 37q0 19 15 29q16 11 38 11h370q25 0 39 -10q14 -11 14 -30q0 -16 -10 -25q-11 -11 -28 -12l-38 -4q-55 -6 -55 -91v-992q0 -46 5 -64q4 -16 22 -25q12 -5 21 -7q6 -2 22 -3q10 -1 53 -1h156 q66 0 106 8q37 7 64 30q26 22 60 70q25 36 33 44q10 8 24 8q17 0 30 -10q12 -10 12 -24q0 -11 -11 -41l-56 -137q-14 -33 -29 -41q-16 -8 -58 -8h-746q-54 0 -54 40z" />
<glyph unicode="M" horiz-adv-x="1569" d="M61 40q0 34 38 37l38 4q56 6 56 91v1021q0 85 -56 91l-36 4q-15 1 -26 12t-11 25q0 18 14 29t39 11h191q51 0 64 -10q14 -11 39 -59l382 -718l357 723l13 27q13 24 28 31q14 6 54 6h208q25 0 39 -10q14 -11 14 -30q0 -15 -10 -25t-28 -12l-34 -4q-56 -8 -56 -91v-1021 q0 -85 56 -91l36 -4q17 -1 28 -11q10 -10 10 -26q0 -18 -14 -29q-16 -11 -40 -11h-367q-25 0 -39 11t-14 29q0 15 11 26q10 10 26 11l38 4q55 6 55 91v929l-356 -733q-15 -33 -27 -45q-13 -13 -31 -13q-30 0 -57 50l-369 709v-897q0 -83 56 -91l34 -4q17 -1 28 -11 q10 -10 10 -26q0 -18 -14 -29q-16 -11 -40 -11h-283q-54 0 -54 40z" />
<glyph unicode="N" horiz-adv-x="1334" d="M61 1324q0 24 14 33q14 8 48 8h152q48 0 65 -7q18 -8 37 -39l642 -897v771q0 83 -56 91l-34 4q-38 3 -38 37q0 40 54 40h281q26 0 40 -10q14 -11 14 -30q0 -16 -10 -25q-11 -11 -28 -12l-36 -4q-55 -6 -55 -91v-1147q0 -47 -8 -60q-7 -13 -36 -13l-37 1q-23 0 -31 8 q-10 8 -11 26q-3 46 -12 74q-10 26 -36 65l-637 889v-864q0 -83 56 -91l34 -4q11 -2 20 -6q10 -7 14 -13q4 -7 4 -18q0 -18 -14 -29q-16 -11 -39 -11h-283q-54 0 -54 40q0 34 38 37l36 4q56 6 56 91v1047q-27 39 -41 50q-15 10 -38 12l-27 3q-44 6 -44 40z" />
<glyph unicode="O" horiz-adv-x="1433" d="M61 677q0 162 47 297q46 133 132 226q86 94 210 143q123 49 274 49q152 0 273 -48q60 -24 112 -60t92 -80q84 -93 127 -223q43 -129 43 -296q0 -163 -46 -294q-46 -133 -132 -226q-84 -92 -206 -142q-121 -50 -271 -50q-147 0 -270 50q-124 50 -209 144q-86 94 -131 222 q-45 129 -45 288zM303 673q0 -133 28 -239q29 -112 83 -186q55 -78 130 -116q75 -39 169 -39q253 0 360 257q60 143 60 335q0 117 -24 225q-26 110 -71 185q-35 59 -84 100q-49 40 -107 59q-60 20 -127 20q-131 0 -225 -71q-93 -71 -143 -207q-49 -135 -49 -323z" />
<glyph unicode="P" horiz-adv-x="1119" d="M61 40q0 34 38 37l35 4q56 8 56 91v942q0 50 -9 66q-11 17 -38 18q-45 3 -45 38q0 23 21 42q23 21 74 43q71 32 180 51q112 20 210 20q236 0 363 -109q126 -109 126 -312q0 -123 -53 -221q-52 -98 -147 -154t-212 -56q-80 0 -133 24t-53 60q0 20 15 35q14 14 36 14 q19 0 36 -4q37 -5 57 -5q65 0 117 40q51 39 80 110q28 69 28 162q0 148 -67 228q-67 81 -188 81q-89 0 -142 -40q-28 -22 -35 -45q-9 -25 -9 -86v-942q0 -87 55 -91l47 -4q16 0 27 -11t11 -26q0 -18 -14 -29q-16 -11 -39 -11h-374q-54 0 -54 40z" />
<glyph unicode="Q" horiz-adv-x="1433" d="M61 682q0 78 11 151.5t35 143.5q46 134 130 224q86 92 209 141q124 50 272 50q150 0 271 -48q122 -48 207 -139q84 -90 131 -221q45 -130 45 -289q0 -187 -58 -331q-28 -72 -71.5 -132t-98.5 -105q-50 -40 -120 -77q-72 -39 -174 -78q-80 -29 -149 -68q53 5 76 5 q66 0 159 -29q60 -19 92 -26q22 -5 46 -5q72 0 130 39l50 34q16 13 40 13q18 0 30 -12t12 -29q0 -27 -24 -61q-24 -36 -66 -72q-113 -95 -256 -95q-96 0 -234 67l-46 23q-84 41 -134 41q-61 0 -123 -54l-18 -16q-19 -18 -39 -18q-18 0 -33 15q-16 13 -16 32q0 41 71 104 q52 46 103 78q49 31 141 76l95 46q120 59 183 111q63 51 104 122q89 155 89 393q0 134 -29 245q-28 108 -83 186q-54 77 -130 117q-77 41 -171 41q-99 0 -175 -40t-132 -117q-55 -78 -84 -186q-29 -110 -29 -243q0 -129 25 -236q26 -109 75 -192q50 -83 121 -135 q42 -28 42 -56q0 -51 -61 -51q-49 0 -114 33q-63 30 -127 88q-66 62 -110 145q-45 84 -67 183q-23 103 -23 214z" />
<glyph unicode="R" horiz-adv-x="1247" d="M61 40q0 34 38 37l37 4q56 6 56 91v944q0 52 -7 66q-8 14 -37 18q-45 8 -45 38q0 39 68 72q80 39 190 61q107 21 226 21q113 0 200 -24q86 -24 148 -72q61 -47 91 -114t30 -158q0 -148 -86 -243q-88 -97 -240 -116l346 -519q7 -10 23 -30q12 -16 22 -21q9 -5 18 -7 q22 -4 43 -7q51 -6 51 -42q0 -24 -13 -31q-14 -8 -55 -8h-167q-49 0 -66 9q-15 8 -47 54l-368 560q-22 36 -24 42q-2 8 -2 19q0 52 60 59q98 14 135 29q39 14 76 53q73 76 73 202q0 77 -29 137q-30 59 -84 90q-55 31 -128 31q-54 0 -95 -16q-43 -16 -68 -46 q-25 -32 -25 -108v-943q0 -85 56 -91l36 -4q17 -1 28 -11q10 -10 10 -26q0 -18 -14 -29q-16 -11 -40 -11h-367q-54 0 -54 40z" />
<glyph unicode="S" horiz-adv-x="990" d="M48 271q0 47 50 47q26 0 45 -30q63 -94 148 -145q83 -52 176 -52q73 0 129 29q53 27 86 82q30 53 30 119q0 77 -49 144q-51 67 -173 153l-110 77q-87 63 -138 108q-51 44 -83 88q-32 45 -47 90q-15 47 -15 96q0 96 46 167q46 72 130 110q85 38 193 38q77 0 143 -17 l61 -15q14 -2 17 -2q22 0 47 21q28 23 49 23q41 0 51 -58l41 -191q5 -23 5 -40q0 -20 -13 -33t-35 -13t-42 27l-20 29q-111 152 -277 152q-86 0 -139 -46q-55 -46 -55 -118q0 -76 75 -145q17 -16 81 -63l34 -23l37 -27q162 -112 240 -186q149 -137 149 -321q0 -108 -50 -194 q-51 -85 -144 -132q-94 -47 -216 -47q-102 0 -174 20l-64 19q-12 3 -23 3q-25 0 -37 -14l-18 -20q-14 -17 -38 -17q-21 0 -34 16q-15 16 -22 50l-45 218q-2 8 -2 23z" />
<glyph unicode="T" horiz-adv-x="1163" d="M27 1141q0 10 11 38l60 143l8 19q14 24 43 24h30h800l30 1q22 0 35 -8q12 -10 22 -36l57 -138l9 -21q4 -15 4 -20q0 -18 -13 -30q-13 -13 -33 -13q-15 0 -27 9q-11 7 -24 25q-59 82 -81 98q-43 31 -113 31h-74q-54 0 -69 -20q-16 -20 -16 -88v-983q0 -85 55 -91l40 -4 q17 -1 28 -11q10 -10 10 -26q0 -18 -14 -29q-16 -11 -40 -11h-376q-22 0 -38 11q-15 11 -15 29q0 34 38 37l45 4q55 6 55 91v983q0 73 -16 90q-16 18 -82 18h-72q-101 0 -181 -126q-15 -23 -25 -30q-11 -8 -24 -8q-19 0 -32 13q-15 14 -15 29z" />
<glyph unicode="U" horiz-adv-x="1314" d="M55 1325q0 18 14 29t39 11h362q25 0 39 -10q14 -11 14 -30q0 -15 -10 -25t-28 -12l-36 -4q-56 -6 -56 -91v-674q0 -155 9 -203q14 -68 53 -116q40 -51 102 -76q63 -27 141 -27q83 0 156 35q72 35 104 91q31 53 38 107q8 58 8 189v674q0 83 -56 91l-31 4q-38 3 -38 37 q0 19 15 29q16 11 38 11h274q25 0 39 -10q14 -11 14 -30q0 -15 -10 -25t-28 -12l-34 -4q-56 -8 -56 -91v-674q0 -150 -14 -228q-13 -75 -57 -140q-57 -86 -160 -132q-102 -46 -240 -46q-142 0 -255 51q-113 50 -164 137q-48 83 -54 189q-3 62 -3 169v674q0 85 -56 91l-36 4 q-15 1 -26 12t-11 25z" />
<glyph unicode="V" horiz-adv-x="1299" d="M27 1324q0 41 79 41h324q43 0 57 -7q15 -7 15 -29q0 -16 -9 -28q-10 -13 -27 -16l-41 -7q-21 -3 -37 -17q-16 -15 -16 -34q0 -21 14 -63l318 -911l294 911q13 35 13 63q0 54 -63 58q-34 3 -46 12q-13 7 -13 28q0 25 15 32q14 8 56 8h238q44 0 59 -7t15 -28q0 -34 -48 -43 q-39 -8 -58 -24q-20 -17 -34 -57l-14 -42l-368 -1093q-12 -38 -20 -56q-4 -9 -15 -20q-22 -22 -54 -22q-31 0 -50 19q-20 20 -39 73l-393 1115q-16 51 -40 75q-21 21 -71 32q-41 8 -41 37z" />
<glyph unicode="W" horiz-adv-x="1917" d="M27 1325q0 23 14 32q14 8 53 8h342q38 0 52 -8q13 -7 13 -31q0 -35 -55 -41q-40 -3 -57 -17q-18 -15 -18 -44q0 -22 9 -46l317 -927l218 640l-100 287q-21 63 -39 81q-19 17 -72 28q-42 8 -42 39q0 24 15 31q14 8 51 8h341q37 0 51 -8q13 -9 13 -31q0 -30 -39 -39l-44 -9 q-46 -9 -46 -51q0 -23 9 -49l307 -931l298 922q13 38 13 61q0 49 -80 57q-45 5 -45 38q0 40 64 40h261q59 0 59 -37q0 -32 -39 -40l-38 -8q-41 -10 -73 -102l-376 -1119q-12 -34 -23 -53q-9 -17 -25 -26q-13 -7 -36 -7q-31 0 -50 17q-18 16 -34 58l-233 663l-220 -647 q-18 -54 -36 -72q-19 -19 -52 -19q-31 0 -51 20q-19 20 -36 66l-390 1119q-28 84 -81 101l-46 14q-24 8 -24 32z" />
<glyph unicode="X" horiz-adv-x="1220" d="M27 41q0 28 42 38q50 12 68 28q22 19 46 61l317 533l-295 494q-27 47 -45 63q-19 14 -58 22q-45 11 -45 45q0 24 14 32t51 8h378q55 0 55 -37q0 -19 -12 -28q-11 -10 -48 -16q-74 -12 -74 -53q0 -20 13 -42l204 -353l198 353q14 23 14 45q0 43 -69 50q-52 4 -52 42 q0 24 14 32q13 7 57 7h273q58 0 58 -38q0 -35 -41 -41q-46 -7 -72 -27q-25 -18 -55 -70l-261 -458l329 -551q31 -50 49 -66q17 -16 57 -25q56 -14 56 -46q0 -26 -15 -34q-16 -9 -62 -9h-360q-40 0 -57 9t-17 32q0 36 57 43q72 11 72 53q0 25 -22 69q-3 7 -51 89l-179 306 l-172 -298q-41 -71 -56 -105q-18 -37 -18 -60q0 -24 15 -35q14 -11 55 -19q49 -7 49 -43q0 -41 -66 -41h-274q-35 0 -49 10q-16 9 -16 31z" />
<glyph unicode="Y" horiz-adv-x="1173" d="M27 1326q0 22 14 31q14 8 49 8h354q34 0 48 -8q13 -9 13 -29q0 -36 -51 -41q-76 -7 -76 -45q0 -19 13 -42l247 -477l232 477q11 24 11 40q0 42 -66 45q-58 1 -58 40q0 25 15 32q14 8 55 8h261q58 0 58 -36q0 -38 -50 -43q-63 -7 -102 -86l-297 -603v-425q0 -85 56 -91 l39 -4q17 -1 28 -11q10 -10 10 -26q0 -18 -14 -29q-16 -11 -39 -11h-366q-54 0 -54 40q0 34 38 37l36 4q55 7 55 91v425l-306 603q-26 54 -42 67q-16 14 -60 18q-51 6 -51 41z" />
<glyph unicode="Z" horiz-adv-x="1004" d="M27 57q0 24 20 59l14 24l653 1123h-307q-63 0 -105 -8q-39 -7 -67 -29t-56 -63q-27 -38 -32 -42q-7 -6 -24 -6q-16 0 -29 11q-12 11 -12 27q0 14 11 47l43 121q11 29 21 36q11 8 38 8h36h637q48 0 68 -11q19 -10 19 -40q0 -23 -21 -59l-18 -29l-650 -1120h356 q101 0 129 7q45 12 71 35q27 23 59 78q29 48 56 48q18 0 29 -11t11 -28q0 -10 -9 -33l-54 -143q-13 -36 -28 -47q-15 -12 -48 -12h-41h-679h-34q-57 5 -57 57z" />
<glyph unicode="[" horiz-adv-x="715" d="M286 -170v1705q0 27 27 27h300q27 0 27 -27v-50q0 -27 -27 -27h-148v-1551h148q27 0 27 -27v-50q0 -27 -27 -27h-300q-27 0 -27 27z" />
<glyph unicode="\" horiz-adv-x="862" d="M0 1488q5 17 44 17h75q29 0 38 -6q9 -7 19 -33l675 -1545q10 -21 10 -38q-3 -18 -42 -18h-68q-26 0 -37 3q-10 1 -15 8q-4 4 -18 36l-671 1538q-10 23 -10 38z" />
<glyph unicode="]" horiz-adv-x="715" d="M75 -120q0 27 27 27h148v1551h-148q-27 0 -27 27v50q0 27 27 27h300q12 0 20 -8t8 -19v-1705q0 -11 -8 -19t-20 -8h-300q-27 0 -27 27v50z" />
<glyph unicode="^" d="M68 0v1365h683v-1365h-683zM82 14h655v1337h-655v-1337z" />
<glyph unicode="_" horiz-adv-x="1024" d="M0 -273h1024v-132h-1024v132z" />
<glyph unicode="`" horiz-adv-x="518" d="M137 1238q0 20 34 20h130q28 0 36 -4q8 -5 11 -24l33 -194q0 -5 1 -7v-9q0 -13 -4 -17t-22 -4l-29 -1q-23 0 -30 4q-10 5 -17 15l-12 19l-123 180q-8 11 -8 22z" />
<glyph unicode="a" horiz-adv-x="861" d="M55 218q0 76 40 140q39 63 115 108q53 31 118 52q60 19 110 19q51 0 51 -41q0 -29 -41 -40q-95 -21 -151 -80q-55 -58 -55 -141q0 -70 38 -114t99 -44q47 0 84 25t53 65q20 52 20 151v274q0 156 -154 156q-51 0 -90 -12q-42 -13 -107 -52q-23 -14 -41 -14q-13 0 -27 15 q-13 13 -13 31q0 36 66 75q107 62 256 62q150 0 222 -63q37 -31 52 -75q14 -45 14 -119v-441q0 -46 8 -64q7 -16 35 -19l28 -2q35 -5 35 -36q0 -34 -36 -34h-199q-20 0 -26 8q-7 7 -7 26l-1 36q-47 -47 -101 -68q-53 -22 -124 -22q-122 0 -196 67q-75 66 -75 171z" />
<glyph unicode="b" horiz-adv-x="956" d="M48 1265q0 14 9 21q8 8 35 20l166 71q20 9 35 9q39 0 39 -57v-1062q0 -93 24 -129q38 -59 130 -59q109 0 166 92q56 92 56 269q0 153 -48 241q-49 87 -134 87q-39 0 -76 -19q-24 -11 -37 -11q-14 0 -27 11q-12 11 -12 24q0 38 55 63q55 26 130 26q78 0 141 -30 q62 -30 108 -85q45 -55 69 -134t24 -176q0 -217 -115 -338q-58 -61 -137 -90q-81 -29 -192 -29q-83 0 -177 17q-91 16 -160 45q-61 25 -61 58q0 32 40 38q39 6 47 16q9 11 9 48v40v914q0 42 -11 59q-12 15 -47 17q-49 3 -49 33z" />
<glyph unicode="c" horiz-adv-x="841" d="M55 415q0 126 52 226q51 100 142 157q91 56 204 56q89 0 146 -23q24 -8 29 -8q12 0 32 17l10 9q11 10 26 10q32 0 42 -43l31 -150q3 -15 3 -24q0 -13 -10 -22q-10 -10 -25 -10q-24 0 -46 28q-59 71 -104 98q-46 26 -107 26q-103 0 -165 -92q-61 -91 -61 -251 q0 -153 67 -241q68 -90 179 -90q100 0 176 66q44 37 54 43q14 8 26 8q19 0 32 -13q12 -13 12 -33q0 -46 -70 -94q-119 -85 -267 -85q-122 0 -213 55q-93 54 -144 153t-51 227z" />
<glyph unicode="d" horiz-adv-x="961" d="M55 421q0 131 45 231q44 101 126 156t187 55q68 0 122 -26q52 -27 52 -62q0 -16 -11 -27q-12 -12 -25 -12q-8 0 -25 7q-57 26 -91 26q-56 0 -97 -41t-62 -120q-22 -78 -22 -192q0 -162 49 -250t141 -88q91 0 139 73q47 74 47 214v768l-1 33q0 39 -11 53t-40 14 q-33 1 -44 8q-11 6 -11 24q0 16 8 24q5 5 34 17l161 68q25 11 39 11q25 0 32 -12q8 -13 8 -47v-1171l1 -28q1 -50 42 -55l31 -2q15 -2 25 -10q10 -10 10 -26q0 -34 -37 -34h-206q-41 0 -41 41v48q-45 -58 -98 -83q-57 -26 -129 -26q-104 0 -184 54q-79 54 -121 154 q-43 99 -43 233z" />
<glyph unicode="e" horiz-adv-x="867" d="M55 419q0 128 53 229t147 156t217 55q139 0 232 -72q44 -33 72 -78q27 -45 27 -89q0 -55 -94 -110l-295 -174q-29 -17 -44 -17q-18 0 -32 14t-14 33q0 17 11 31q10 12 37 28l154 93q45 28 66 55q18 26 18 58q0 36 -19 67q-18 30 -51 50q-32 19 -70 19q-101 0 -160 -93 q-59 -94 -59 -252q0 -159 68 -250q67 -91 188 -91q57 0 117 26q56 24 107 74q31 29 53 29q18 0 30 -12t12 -29q0 -43 -72 -100q-116 -89 -273 -89q-129 0 -224 55q-97 55 -149 155q-53 100 -53 229z" />
<glyph unicode="f" horiz-adv-x="525" d="M34 795q0 22 15 32q14 9 48 9h70v311q0 120 61 181q62 62 179 62q51 0 98 -16q50 -17 77 -40q29 -26 29 -52q0 -18 -14 -32t-29 -14q-13 0 -27 10l-32 20q-34 22 -68 22q-52 0 -75 -30q-22 -31 -22 -101v-321h106q38 0 54 -8q14 -8 14 -30q0 -23 -15 -32t-58 -9h-41 q-39 0 -50 -12q-10 -13 -10 -71v-519q0 -48 9 -65t34 -18l57 -2q36 -1 36 -36q0 -34 -36 -34h-363q-36 0 -36 34q0 33 35 36l44 2q28 3 35 19q8 16 8 64v510q0 60 -10 76t-46 16h-25q-52 0 -52 38z" />
<glyph unicode="g" horiz-adv-x="847" d="M55 -168q0 78 50 134q50 54 120 54q34 0 53 -12t19 -32q0 -16 -20 -33l-25 -19q-19 -14 -31 -42q-13 -26 -13 -54q0 -43 26 -78t72 -54q46 -20 103 -20q91 0 149 50q57 49 57 128q0 44 -17 81q-16 34 -61 77q-42 41 -127 104l-133 98q-78 60 -122 111q-45 53 -66 109 q-22 54 -22 120q0 91 44 161q44 69 124 107q78 37 186 37q77 0 134 -15q37 -10 46 -10q16 0 22 10q7 10 8 37q3 51 57 51q32 0 52 -20q19 -20 19 -55q0 -72 -71 -87q55 -48 78 -92q22 -43 22 -109q0 -114 -81 -185q-80 -70 -165 -70q-21 0 -35 11t-14 29q0 17 21 33l32 25 q75 59 75 160q0 89 -52 144t-136 55q-82 0 -137 -52t-55 -136q0 -121 149 -232l141 -105q59 -43 109 -83q36 -30 68 -65q84 -93 84 -217q0 -91 -45 -160q-46 -69 -132 -105q-86 -37 -200 -37q-163 0 -261 69q-99 67 -99 184z" />
<glyph unicode="h" horiz-adv-x="995" d="M55 34q0 33 35 36l30 2q26 3 35 19q8 18 8 64v979v27q0 40 -12 53q-14 14 -49 14q-45 2 -45 34q0 21 38 38l158 67l25 11q17 7 28 7q22 0 29 -12q6 -13 6 -54v-578q98 111 264 111q237 0 237 -246v-451q0 -47 9 -64q7 -16 34 -19l35 -2q15 -2 25 -10q10 -10 10 -26 q0 -34 -37 -34h-321q-37 0 -37 34q0 31 35 36l28 2q26 3 35 19q8 18 8 64v413q0 88 -30 128q-31 40 -96 40q-40 0 -82 -20q-39 -19 -69 -55q-48 -64 -48 -194v-312q0 -47 9 -64q7 -16 34 -19l28 -2q35 -5 35 -36q0 -34 -36 -34h-320q-36 0 -36 34z" />
<glyph unicode="i" horiz-adv-x="497" d="M55 34q0 33 35 36l30 2q26 3 35 19q8 18 8 64v485q0 35 -13 48q-12 12 -50 14q-43 1 -43 33q0 13 7 20q6 6 36 20l167 69q27 11 36 11q24 0 31 -13q6 -13 6 -59v-628q0 -47 9 -64q7 -16 34 -19l32 -2q15 -2 25 -10q9 -10 9 -26q0 -34 -36 -34h-322q-36 0 -36 34z M128 1193q0 45 35 80q35 33 82 33q32 0 58 -16t42 -42t16 -57q0 -48 -33 -83t-82 -35q-51 0 -84 36q-34 34 -34 84z" />
<glyph unicode="j" horiz-adv-x="484" d="M34 -389q0 19 28 65q24 42 44.5 96t33.5 105q27 111 27 237v512q0 44 -13 58t-53 16q-22 2 -33 9q-10 7 -10 23q0 21 20 30l190 80q27 11 40 11q22 0 29 -13t7 -51v-680q0 -199 -107 -372q-41 -69 -88 -114q-50 -47 -79 -47q-15 0 -25 10q-11 11 -11 25zM130 1191 q0 46 35 81q35 33 81 33q31 0 58 -15q26 -16 43 -42q15 -27 15 -58q0 -48 -33 -83q-33 -34 -82 -34q-48 0 -83 35q-34 34 -34 83z" />
<glyph unicode="k" horiz-adv-x="952" d="M55 34q0 33 35 36l31 2q27 3 34 19q8 18 8 64v973v36q0 39 -13 52t-53 13q-40 1 -40 35q0 22 24 31l25 11l163 68q20 10 38 10q19 0 27 -11q7 -10 7 -40v-1178q0 -47 9 -64q7 -16 34 -19l29 -2q35 -5 35 -36q0 -34 -37 -34h-320q-36 0 -36 34zM367 449q0 17 12 30l14 17 l167 197q21 26 21 40q0 24 -50 32q-45 6 -45 36q0 32 56 32h245q33 0 46 -6q12 -6 12 -25q0 -16 -11 -24q-10 -7 -42 -12q-32 -3 -60 -22t-60 -57l-154 -182l282 -371l20 -26q29 -36 74 -41q44 -5 44 -34q0 -20 -13 -26q-13 -7 -52 -7h-128q-40 0 -49 4q-11 3 -24 22l-16 21 l-265 356q-24 32 -24 46z" />
<glyph unicode="l" horiz-adv-x="497" d="M55 34q0 33 35 36l30 2q26 3 35 19q8 18 8 64v977l-1 39q0 35 -12 47q-14 11 -56 14q-35 2 -35 33q0 14 8 22q7 7 36 19l157 67l22 9q8 4 23 4q22 0 29 -13q6 -13 6 -48v-1170q0 -47 9 -64q7 -16 34 -19l32 -2q15 -2 25 -10q9 -10 9 -26q0 -34 -36 -34h-322q-36 0 -36 34 z" />
<glyph unicode="m" horiz-adv-x="1470" d="M55 34q0 31 35 36l29 2q26 3 35 19q8 18 8 64v459q0 59 -10 72t-58 16q-38 2 -38 32q0 14 10 23q9 9 34 19l156 64q34 14 44 14q38 0 38 -53v-55q96 111 251 111q84 0 139 -30q54 -31 82 -95q98 125 276 125q122 0 182 -63q54 -55 54 -189v-450q0 -47 9 -64q7 -16 34 -19 l29 -2q35 -5 35 -36q0 -34 -37 -34h-317q-37 0 -37 34q0 31 35 36l28 2q26 3 35 19q8 18 8 64v423q0 83 -29 124q-30 39 -91 39q-46 0 -86 -22q-41 -23 -67 -61q-40 -58 -40 -168v-335q0 -47 9 -64q7 -16 34 -19l31 -2q35 -3 35 -36q0 -34 -37 -34h-324q-36 0 -36 34 q0 33 35 36l32 2q26 3 35 19q8 18 8 64v414q0 92 -25 126q-36 47 -98 47q-47 0 -89 -24q-41 -25 -67 -66q-36 -63 -36 -169v-328q0 -46 8 -64q7 -16 35 -19l29 -2q35 -5 35 -36q0 -34 -36 -34h-318q-36 0 -36 34z" />
<glyph unicode="n" horiz-adv-x="995" d="M55 34q0 33 35 36l31 2q26 3 35 19q8 18 8 64v467q0 49 -12 65t-49 16q-43 0 -43 33q0 22 21 31l24 10l159 69q26 12 40 12q38 0 38 -48v-64q68 60 127 85q57 23 135 23q126 0 187 -67q31 -32 41 -75q11 -46 11 -125v-432v-28q1 -27 11 -40q9 -12 31 -15l34 -2 q15 -2 25 -10q10 -10 10 -26q0 -34 -36 -34h-322q-37 0 -37 34q0 31 35 36l29 2q26 3 35 19q8 18 8 64v397q0 100 -29 143q-28 42 -101 42q-56 0 -100 -32q-45 -33 -69 -92q-25 -59 -25 -142v-316q0 -46 8 -64q7 -16 34 -19l28 -2q35 -5 35 -36q0 -34 -36 -34h-320 q-36 0 -36 34z" />
<glyph unicode="o" horiz-adv-x="980" d="M55 418q0 130 53 231t150 153t229 52q100 0 184 -29q80 -28 139 -85q56 -56 86 -136q29 -82 29 -184q0 -101 -30 -184q-31 -82 -91 -142q-55 -56 -132 -85q-79 -29 -182 -29q-218 0 -325 122q-110 125 -110 316zM248 412q0 -105 29 -183t84 -120q56 -42 127 -42 q75 0 130 43t85 124q29 81 29 187q0 102 -29 181q-29 77 -83 119q-55 41 -124 41q-119 0 -183 -91q-65 -92 -65 -259z" />
<glyph unicode="p" horiz-adv-x="954" d="M41 -367q0 32 35 35l31 3q29 3 36 19q7 14 7 63v833v26q0 35 -9 48q-11 14 -38 15q-51 6 -51 41t93 75q149 63 330 63q215 0 310 -104q37 -41 63 -95t39 -118q13 -62 13 -128q0 -100 -27 -184q-28 -84 -81 -147q-87 -105 -244 -105q-73 0 -128 26q-54 26 -54 63 q0 14 11 27q11 11 24 11q12 0 37 -12q39 -19 77 -19q57 0 100 42q42 41 65 118q23 78 23 179q0 160 -59 258q-58 96 -162 96q-45 0 -82 -22q-38 -23 -55 -55q-18 -33 -18 -136v-796q0 -48 9 -64q9 -17 34 -18l45 -3q35 -2 35 -36t-36 -34h-337q-36 0 -36 35z" />
<glyph unicode="q" horiz-adv-x="944" d="M55 405q0 98 28 185q27 89 76 144q107 125 309 125q67 0 116 -13q53 -14 108 -47q40 100 97 100q14 0 26 -12t12 -27q0 -10 -9 -45q-13 -51 -13 -129v-75v-854q0 -48 9 -64q9 -17 34 -18l34 -3q15 -2 25 -10q10 -10 10 -26q0 -34 -36 -34h-345q-37 0 -37 34t35 36l52 3 q26 2 35 18q8 18 8 64v803q0 94 -25 134q-20 30 -54 47q-34 15 -77 15q-104 0 -161 -92q-57 -91 -57 -263q0 -105 22 -177q21 -72 62 -112q41 -39 98 -39q33 0 81 22q23 9 33 9q14 0 25 -11q10 -11 10 -29q0 -37 -53 -63q-55 -26 -131 -26q-101 0 -181 53q-79 52 -123 151 q-43 96 -43 226z" />
<glyph unicode="r" horiz-adv-x="662" d="M55 34q0 33 35 36l30 2q26 3 35 19q8 18 8 64v467q0 52 -11 66q-10 11 -56 13q-39 2 -39 33q0 14 8 22q7 7 35 18l158 66l26 11q8 4 19 4q17 0 25 -11q6 -12 6 -50v-76q63 142 195 142q53 0 93 -24q40 -25 40 -55q0 -15 -20 -40l-38 -45q-18 -22 -31 -22q-7 0 -19 5 l-32 21q-24 15 -49 15q-58 0 -96 -59q-37 -59 -37 -161v-340q0 -48 8 -64q7 -16 35 -19l40 -2q15 -2 25 -10q10 -10 10 -26q0 -34 -36 -34h-331q-36 0 -36 34z" />
<glyph unicode="s" horiz-adv-x="721" d="M61 204q0 16 13 28q13 11 29 11q25 0 39 -20l29 -44q31 -48 86 -78q53 -30 108 -30q54 0 88 33q35 32 35 81q0 48 -30 79q-34 34 -146 104q-99 63 -136 94q-93 78 -93 179q0 64 33 113q32 48 93 77q57 28 132 28q66 0 141 -27q12 -5 20 -5q14 0 27 12l11 10q11 9 25 9 q19 0 26 -9q7 -10 13 -40l23 -115l6 -27q2 -18 2 -19q0 -14 -10 -24q-11 -11 -26 -11q-19 0 -36 24l-22 32q-67 97 -166 97q-44 0 -76 -26t-32 -63q0 -59 114 -127l76 -45q109 -64 160 -130q50 -67 50 -146q0 -76 -35 -132t-99 -86q-63 -31 -151 -31q-70 0 -141 20 q-28 9 -38 9q-11 0 -31 -14q-26 -20 -41 -20q-34 0 -42 47l-24 151q-4 25 -4 31z" />
<glyph unicode="t" horiz-adv-x="559" d="M41 793q0 22 13 31q14 9 41 9h74v244v20q0 22 6 29q4 6 39 23l69 33q30 14 41 14q16 0 20 -13q5 -15 5 -54v-296h106q40 0 53 -7t13 -30t-12 -31q-13 -9 -44 -9h-57q-27 0 -40 -5q-12 -4 -15 -20q-4 -15 -4 -61v-477q0 -54 14 -79q14 -24 44 -24q21 0 42 10l27 13 q14 8 27 8q16 0 30 -11q12 -12 12 -29q0 -27 -28 -49q-29 -25 -75 -38q-48 -14 -99 -14q-54 0 -96 21q-41 19 -58 54q-20 42 -20 133v483q0 55 -9 70q-10 15 -44 15h-29q-46 0 -46 37z" />
<glyph unicode="u" horiz-adv-x="988" d="M41 729q0 15 10 25q11 10 35 18l159 58q36 13 46 13q34 0 34 -61v-463q0 -106 11 -147t45 -65q35 -24 83 -24q53 0 93 24q39 22 61 65q28 52 28 151v320q0 35 -12 47q-13 11 -47 11q-48 2 -48 33q0 23 22 32l22 9l159 67q29 13 47 13q21 0 28 -12q7 -13 7 -46v-642l1 -28 q1 -50 42 -55l31 -2q35 -3 35 -36q0 -34 -36 -34h-201q-20 0 -27 7t-7 27v50q-93 -105 -257 -105q-132 0 -197 65q-36 38 -48 86q-12 50 -12 158v341q0 62 -38 65l-29 1q-40 3 -40 34z" />
<glyph unicode="v" horiz-adv-x="960" d="M27 797q0 21 14 29q13 7 53 7h288q33 0 46 -7q12 -7 12 -28q0 -30 -43 -37l-26 -5q-42 -7 -42 -40q0 -16 20 -78l19 -52l18 -50l131 -335l185 485q6 17 6 32q0 19 -12 29q-12 9 -44 12q-41 6 -41 37q0 20 12 29q13 8 42 8h208q35 0 48 -7q12 -7 12 -27q0 -29 -37 -36 l-32 -8q-33 -7 -57 -69l-253 -622l-12 -29q-22 -55 -63 -55q-22 0 -36 12q-12 11 -29 48l-10 24l-254 622q-19 46 -31 56q-13 11 -54 18q-38 8 -38 37z" />
<glyph unicode="w" horiz-adv-x="1426" d="M27 800q0 21 12 27t52 6h284q42 0 54 -6q11 -6 11 -27q0 -33 -46 -36q-59 -5 -59 -43q0 -18 10 -47q21 -59 31 -80l173 -404l135 339l-50 119q-31 76 -45 91q-13 15 -62 24q-35 8 -35 34q0 22 13 29t49 7h289q37 0 50 -7q12 -7 12 -27q0 -32 -40 -36q-41 -5 -54 -14 q-16 -10 -16 -35t38 -127l17 -44l129 -327l176 474q7 15 7 35t-10 27q-12 9 -40 10q-48 5 -48 38q0 19 12 26q10 7 45 7h217q35 0 48 -6t13 -26q0 -26 -39 -35q-36 -7 -54 -22q-16 -13 -33 -54l-253 -625l-12 -29q-14 -34 -25 -44q-13 -12 -37 -12q-44 0 -67 56l-12 29 l-138 341l-145 -349q0 -1 -3 -9q-4 -10 -7 -16q-11 -31 -23 -40q-13 -12 -39 -12t-37 10q-13 9 -30 44l-10 23l-282 633q-16 39 -33 54q-16 14 -51 18q-42 5 -42 38z" />
<glyph unicode="x" horiz-adv-x="911" d="M27 35q0 30 30 34l31 6q45 8 97 86l176 255l-171 256q-34 53 -54 69q-20 17 -53 21q-43 6 -43 36q0 35 38 35h30h302q47 0 47 -31q0 -18 -10 -25q-10 -8 -35 -10q-49 -3 -49 -38q0 -18 14 -38l114 -175l107 175q13 20 13 37q0 38 -51 39q-20 1 -32 10q-10 7 -10 22 q0 34 49 34h215q37 0 47 -6q11 -8 11 -25q0 -30 -43 -37q-49 -8 -77 -48l-17 -26l-162 -244l200 -286q44 -60 59 -73q19 -18 42 -22q28 -6 35 -12q7 -7 7 -21q0 -21 -10 -27t-40 -6h-313q-32 0 -45 7t-13 25q0 29 36 35q54 9 54 43q0 23 -18 51l-125 189l-122 -189 q-19 -28 -19 -46q0 -38 46 -45q30 -5 38 -10q8 -6 8 -23q0 -23 -13 -30t-54 -7h-207q-36 0 -47 7q-13 7 -13 28z" />
<glyph unicode="y" horiz-adv-x="963" d="M27 800q0 22 11 28q12 5 51 5h289q30 0 40 -7t10 -26q0 -32 -40 -35q-60 -4 -60 -42q0 -21 13 -50l196 -445l172 438q13 30 13 50q0 40 -62 48q-50 5 -50 37t53 32h221q52 0 52 -30q0 -28 -36 -37q-37 -9 -53 -25q-18 -18 -34 -60l-411 -1027l-9 -23q-7 -20 -18 -24 q-10 -6 -45 -6h-83q-28 0 -37 4q-11 3 -11 15t19 35q116 152 219 350l10 20l-291 656l-11 24q-24 50 -69 57q-29 6 -39 14q-10 7 -10 24z" />
<glyph unicode="z" horiz-adv-x="724" d="M41 35q0 22 43 95l363 614h-157q-44 0 -67 -6q-22 -7 -41 -26q-18 -18 -49 -66q-16 -27 -36 -27q-13 0 -24 9t-11 19q0 15 9 39l30 85q17 45 25 53q8 9 31 9h38h353q58 0 79 -8q19 -9 19 -36q0 -16 -7 -29l-20 -34l-19 -31l-358 -604h195q56 0 89 16q34 16 56 50l28 43 q20 30 41 30q13 0 23 -7q9 -7 9 -21q0 -9 -11 -39l-37 -96q-19 -48 -28 -56q-10 -10 -39 -10h-35h-407h-39q-46 1 -46 34z" />
<glyph unicode="{" d="M68 0v1365h683v-1365h-683zM82 14h655v1337h-655v-1337z" />
<glyph unicode="|" d="M68 0v1365h683v-1365h-683zM82 14h655v1337h-655v-1337z" />
<glyph unicode="}" d="M68 0v1365h683v-1365h-683zM82 14h655v1337h-655v-1337z" />
<glyph unicode="~" d="M68 0v1365h683v-1365h-683zM82 14h655v1337h-655v-1337z" />
<glyph unicode="&#xa1;" horiz-adv-x="539" d="M137 1261q0 56 39 95t94 39q54 0 93 -39t39 -92q0 -56 -39 -95t-94 -39q-53 0 -92 39q-40 37 -40 92zM148 93q0 35 4 90l51 756q5 62 20 88q13 25 47 25q33 0 46 -24q15 -26 19 -89l52 -756q4 -59 4 -81q0 -67 -29 -98q-30 -30 -94 -30q-60 0 -90 30t-30 89z" />
<glyph unicode="&#xa2;" horiz-adv-x="953" d="M96 692q0 122 45 222t127 159q83 60 193 73v142q0 8 6 14t15 6h84q20 0 20 -20v-137q144 -12 221 -68q77 -57 77 -149q0 -58 -34 -98q-34 -42 -82 -42q-24 0 -41 15q-17 14 -17 33q0 6 5 23q7 29 7 46q0 52 -36 86q-37 32 -100 37v-691q55 1 94 18q40 17 80 54l18 18 q23 21 47 21q20 0 33 -15q14 -16 14 -36q0 -49 -90 -111q-86 -58 -196 -61v-148q0 -20 -20 -20l-84 1q-9 0 -15 7q-6 8 -6 13v147q-110 15 -193 77q-85 62 -128 159q-44 99 -44 225zM299 689q0 -130 43 -215q42 -87 119 -113v662q-39 -11 -62 -31q-25 -22 -47 -64 q-53 -101 -53 -239z" />
<glyph unicode="&#xa3;" horiz-adv-x="946" d="M55 56q0 28 35 80q57 76 98 152q36 66 53 127q16 57 16 119v15q-1 5 -1 15h-125q-9 0 -19 8q-9 8 -9 19v84q0 27 27 27l97 1q-10 29 -57 136q-67 153 -67 239q0 140 109 225q108 84 287 84q119 0 203 -31q83 -31 129 -91q45 -60 45 -146q0 -87 -56 -149t-136 -62 q-27 0 -50 14q-22 13 -22 31q0 14 10 25l20 20q22 22 39 58q15 35 15 61q0 71 -52 117q-53 47 -130 47q-85 0 -138 -52q-55 -52 -55 -134q0 -41 15 -89q13 -46 56 -147q34 -76 59 -156h158q28 0 28 -27v-85q0 -11 -8 -19t-20 -8h-141q-9 -129 -52 -216q-43 -89 -140 -177 h401q62 0 89 12q25 10 51 53l11 18q17 27 37 27q19 0 30 -8q10 -9 10 -23q0 -16 -10 -40l-62 -153q-14 -37 -25 -47q-14 -11 -39 -11l-42 1h-577q-56 0 -75 13q-20 12 -20 43z" />
<glyph unicode="&#xa4;" d="M68 0v1365h683v-1365h-683zM82 14h655v1337h-655v-1337z" />
<glyph unicode="&#xa5;" horiz-adv-x="1173" d="M27 1327q0 38 63 38h354q34 0 48 -8q13 -7 13 -29q0 -36 -51 -41q-38 -3 -57 -14q-19 -12 -19 -35q0 -13 13 -38l247 -477l232 477l5 10q5 13 5 31q0 39 -65 44q-32 2 -44 11q-14 11 -14 29q0 25 15 32q14 8 55 8h261q58 0 58 -36q0 -16 -4 -23t-16 -12t-30 -8 q-63 -7 -102 -86l-194 -395h201q28 0 28 -27v-55q0 -11 -8 -19t-20 -8h-255l-49 -99v-37h277q27 0 27 -28v-54q0 -9 -8 -19q-7 -9 -19 -9h-277v-278q0 -85 56 -91l39 -4q17 -1 28 -11q10 -10 10 -26q0 -18 -14 -29q-16 -11 -39 -11h-366q-54 0 -54 40q0 34 38 37l36 4 q55 7 55 91v278h-276q-10 0 -19 9t-9 19v54q0 13 9 20q10 8 19 8h276v37l-50 99h-254q-27 0 -27 27v55q0 27 27 27h199l-201 395q-26 54 -41 66q-16 13 -61 19q-51 8 -51 42z" />
<glyph unicode="&#xa7;" d="M68 0v1365h683v-1365h-683zM82 14h655v1337h-655v-1337z" />
<glyph unicode="&#xa8;" horiz-adv-x="878" d="M137 1128q0 51 34 85t85 34q50 0 84 -34t34 -84q0 -51 -34 -85t-84 -34q-51 0 -85 34t-34 84zM505 1132q0 47 36 81q34 34 83 34t83 -33q34 -34 34 -83q0 -50 -33 -85q-34 -36 -83 -36q-51 0 -86 35q-34 34 -34 87z" />
<glyph unicode="&#xa9;" d="M68 0v1365h683v-1365h-683zM82 14h655v1337h-655v-1337z" />
<glyph unicode="&#xaa;" d="M68 0v1365h683v-1365h-683zM82 14h655v1337h-655v-1337z" />
<glyph unicode="&#xab;" horiz-adv-x="760" d="M82 436q0 16 9 29l12 18l146 251q1 1 3 5q1 2 2.5 4.5t2.5 5.5q7 19 25 19h16h52q36 0 36 -16q0 -7 -7 -27l-107 -287l110 -296q2 -5 6 -17q2 -6 2 -8q0 -11 -7 -12q-7 -3 -31 -3l-46 -1h-18q-15 0 -20 4q-8 5 -18 23l-150 263q-18 30 -18 45zM370 438q0 14 19 45 l145 251q19 34 40 34h17h52h20q15 -3 15 -16q0 -1 -2 -9l-7 -18l-108 -287l107 -296l5 -16q2 -10 2 -9q0 -6 -5 -11t-13 -5h-21l-46 1h-18q-13 0 -20 5q-6 5 -15 21l-147 263q-20 38 -20 47z" />
<glyph unicode="&#xac;" d="M68 0v1365h683v-1365h-683zM82 14h655v1337h-655v-1337z" />
<glyph unicode="&#xad;" horiz-adv-x="783" d="M82 424v82q0 27 27 27h564q28 0 28 -27v-82q0 -9 -8 -19q-7 -9 -20 -9h-564q-11 0 -19 9q-8 10 -8 19z" />
<glyph unicode="&#xae;" d="M68 0v1365h683v-1365h-683zM82 14h655v1337h-655v-1337z" />
<glyph unicode="&#xaf;" d="M68 0v1365h683v-1365h-683zM82 14h655v1337h-655v-1337z" />
<glyph unicode="&#xb0;" d="M68 0v1365h683v-1365h-683zM82 14h655v1337h-655v-1337z" />
<glyph unicode="&#xb1;" horiz-adv-x="1046" d="M61 1325q0 40 54 40h368q25 0 39 -10q14 -11 14 -30q0 -15 -10 -25t-28 -12l-37 -4q-55 -6 -55 -91v-1092q85 0 148 -19q67 -20 177 -79q81 -40 123 -55q40 -14 78 -14q43 0 86 24l21 12q13 7 25 7q15 0 25 -10q11 -11 11 -24q0 -35 -33 -66q-33 -34 -83 -53 q-49 -21 -98 -21q-104 0 -238 84l-78 48q-119 76 -245 76q-34 0 -66 -5l-66 -10q-37 -5 -54 -5q-33 0 -53 14q-21 14 -21 34q0 36 54 39q44 3 61 23q15 20 15 76v1016q0 85 -56 91l-40 4q-38 3 -38 37z" />
<glyph unicode="&#xb2;" horiz-adv-x="941" d="M55 51q0 45 37 123q40 85 103 178q65 98 132 174l157 177q84 95 121 176q38 84 38 172q0 108 -50 170q-51 61 -143 61q-78 0 -131 -50q-53 -51 -53 -132q0 -40 15 -70q14 -29 53 -65q27 -22 27 -44q0 -29 -25 -45q-25 -18 -63 -18q-89 0 -149 67q-61 67 -61 165 q0 88 50 158t141 107q89 37 210 37q125 0 214 -40t138 -118q47 -77 47 -184q0 -142 -95 -273q-40 -54 -67 -81q-33 -33 -129 -119q-120 -106 -193 -199q-71 -91 -122 -204h373q68 0 91 4q25 5 41 21q19 19 43 60q18 29 44 29q16 0 26 -10q11 -11 11 -26q0 -9 -7 -30 l-57 -159q-16 -44 -31 -54q-15 -9 -69 -9h-586q-41 0 -61 12t-20 39z" />
<glyph unicode="&#xb3;" horiz-adv-x="861" d="M14 1117q0 10 3 19l10 27l55 149l10 27q9 17 23 22q12 4 57 4h508q64 0 83 -9q20 -11 20 -40q0 -22 -38 -69l-249 -316q110 -23 170 -66q64 -47 99 -119q35 -75 35 -158q0 -148 -85 -279q-84 -132 -238 -226q-81 -51 -180 -85q-99 -33 -168 -33q-74 0 -74 45q0 38 55 56 q95 32 133 50q48 22 101 57q68 45 125 111q54 63 81 131t27 140q0 127 -91 185q-39 25 -126 38q-65 11 -65 65q0 20 16 42l19 25l220 284h-322q-53 0 -73 -13t-55 -65q-23 -35 -48 -35q-16 0 -27 11t-11 25z" />
<glyph unicode="&#xb4;" horiz-adv-x="517" d="M137 1016q0 7 2 21l30 178q5 28 11 35q8 8 21 8h28h104q47 0 47 -22q0 -12 -14 -32l-118 -174q-15 -21 -22 -26q-9 -6 -28 -6h-29q-20 0 -25 4q-7 4 -7 14z" />
<glyph unicode="&#xb5;" horiz-adv-x="528" d="M41 793q0 23 13 32q14 8 47 8h69v247v23q0 15 3 21q2 5 14 13q10 6 27 13l74 34l18 9q6 3 13 3q29 0 29 -49v-314h63q42 0 58 -8q15 -9 15 -32q0 -36 -43 -36h-34q-38 0 -48 -13q-11 -14 -11 -61v-517q0 -187 33 -319q20 -78 63 -162q17 -32 17 -44q0 -19 -13 -31 q-13 -13 -33 -13q-52 0 -141 143q-26 43 -44 87q-22 52 -34 106q-16 61 -20 113q-6 54 -6 120v511q0 48 -11 65q-12 15 -51 15h-29q-38 0 -38 36z" />
<glyph unicode="&#xb6;" d="M68 0v1365h683v-1365h-683zM82 14h655v1337h-655v-1337z" />
<glyph unicode="&#xb7;" horiz-adv-x="537" d="M137 708q0 31 18 61q17 29 48 47q31 17 64 17q53 0 94 -38q39 -39 39 -91q0 -36 -17 -67q-18 -30 -48 -48q-31 -18 -65 -18q-57 0 -94 40q-39 39 -39 97z" />
<glyph unicode="&#x2219;" horiz-adv-x="537" d="M137 708q0 31 18 61q17 29 48 47q31 17 64 17q53 0 94 -38q39 -39 39 -91q0 -36 -17 -67q-18 -30 -48 -48q-31 -18 -65 -18q-57 0 -94 40q-39 39 -39 97z" />
<glyph unicode="&#xb8;" d="M68 0v1365h683v-1365h-683zM82 14h655v1337h-655v-1337z" />
<glyph unicode="&#xb9;" horiz-adv-x="612" d="M55 1043q0 15 15 36t64 70q11 11 48 54l12 15l10 12l9 11l17 21l11 14q14 19 29 36l14 18q28 39 43 50q17 12 35 12q50 0 50 -81v-1139q0 -85 56 -91l38 -4q11 -1 20 -7q9 -5 13 -12t4 -18q0 -18 -14 -29t-39 -11h-354q-54 0 -54 40q0 34 38 37l38 4q55 6 55 91v915 q-76 -91 -114 -91q-15 0 -29 15q-15 14 -15 32z" />
<glyph unicode="&#xba;" d="M68 0v1365h683v-1365h-683zM82 14h655v1337h-655v-1337z" />
<glyph unicode="&#xbb;" horiz-adv-x="760" d="M82 752q0 13 15 16h20h52h17q21 0 40 -34l145 -251q19 -31 19 -45q0 -9 -20 -47l-147 -263q-9 -16 -15 -21q-7 -5 -20 -5h-18l-46 -1h-21q-18 0 -18 16q0 -1 2 9l5 16l107 296l-108 287l-7 18q-2 8 -2 9zM370 117q0 2 2 8q4 12 6 17l110 296l-106 287q-8 21 -8 27 q0 16 36 16h52h16q18 0 25 -19q5 -6 6 -9l2 -6l146 -251l12 -18q9 -13 9 -29q0 -15 -18 -45l-149 -263q-11 -18 -17 -22q-8 -5 -22 -5h-18l-46 1q-22 0 -30 3q-8 2 -8 12z" />
<glyph unicode="&#xbf;" horiz-adv-x="838" d="M41 283q0 103 63 202q26 38 56 71q29 31 82 80q89 80 120 125q47 71 47 141q0 22 -8 65q-3 17 -3 28q0 24 18 40q16 16 41 16q23 0 45 -17q23 -19 38 -46q18 -31 28 -68q10 -39 10 -77q0 -83 -42 -155q-31 -53 -122 -144q-76 -73 -116 -145q-38 -70 -38 -135 q0 -85 45 -135q44 -50 120 -50t123 50q45 50 45 131q0 80 -53 144q-26 34 -26 54q0 26 22 42q20 16 51 16q55 0 104 -34q49 -35 77 -93q29 -60 29 -120q0 -134 -102 -212q-101 -79 -277 -79q-182 0 -280 80q-97 79 -97 225zM319 1259q0 34 18 65q18 30 48 48q29 17 66 17 q57 0 94 -37t37 -90q0 -57 -38 -95q-39 -39 -94 -39q-53 0 -92 39t-39 92z" />
<glyph unicode="&#xc0;" horiz-adv-x="1241" d="M27 39q0 34 47 45q42 9 59 24q16 15 30 56l380 1165q14 41 28 55q13 13 44 13q52 0 71 -61l386 -1172q21 -62 74 -76l31 -8q37 -10 37 -40q0 -40 -68 -40h-352q-35 0 -52 9q-16 7 -16 30q0 37 49 44l39 5q40 6 40 48q0 16 -10 47l-62 200q-14 44 -27 53q-15 9 -69 9h-231 q-54 0 -71 -12q-18 -14 -33 -64l-62 -205q-5 -20 -5 -31q0 -48 62 -53q31 -1 44 -10q12 -10 12 -32q0 -21 -14 -29q-15 -9 -47 -9h-251q-36 0 -50 9q-13 7 -13 30zM404 546h331l-168 514zM411 1772q0 20 34 20h130q28 0 36 -4q8 -5 11 -24l33 -194q0 -5 1 -7v-9 q0 -13 -4 -17t-22 -4l-29 -1q-23 0 -30 4q-10 5 -17 15l-12 19l-123 180q-8 11 -8 22z" />
<glyph unicode="&#xc1;" horiz-adv-x="1241" d="M27 39q0 34 47 45q42 9 59 24q16 15 30 56l380 1165q14 41 28 55q13 13 44 13q52 0 71 -61l386 -1172q21 -62 74 -76l31 -8q37 -10 37 -40q0 -40 -68 -40h-352q-35 0 -52 9q-16 7 -16 30q0 37 49 44l39 5q40 6 40 48q0 16 -10 47l-62 200q-14 44 -27 53q-15 9 -69 9h-231 q-54 0 -71 -12q-18 -14 -33 -64l-62 -205q-5 -20 -5 -31q0 -48 62 -53q31 -1 44 -10q12 -10 12 -32q0 -21 -14 -29q-15 -9 -47 -9h-251q-36 0 -50 9q-13 7 -13 30zM404 546h331l-168 514zM569 1548q0 7 2 21l30 178q5 28 11 35q8 8 21 8h28h104q47 0 47 -22q0 -12 -14 -32 l-118 -174q-15 -21 -22 -26q-9 -6 -28 -6h-29q-20 0 -25 4q-7 4 -7 14z" />
<glyph unicode="&#xc2;" horiz-adv-x="1241" d="M27 39q0 34 47 45q42 9 59 24q16 15 30 56l380 1165q14 41 28 55q13 13 44 13q52 0 71 -61l386 -1172q21 -62 74 -76l31 -8q37 -10 37 -40q0 -40 -68 -40h-352q-35 0 -52 9q-16 7 -16 30q0 37 49 44l39 5q40 6 40 48q0 16 -10 47l-62 200q-14 44 -27 53q-15 9 -69 9h-231 q-54 0 -71 -12q-18 -14 -33 -64l-62 -205q-5 -20 -5 -31q0 -48 62 -53q31 -1 44 -10q12 -10 12 -32q0 -21 -14 -29q-15 -9 -47 -9h-251q-36 0 -50 9q-13 7 -13 30zM341 1539q0 7 3 10l10 8l234 215q23 21 33 21t24 -14l236 -216q20 -20 20 -25q0 -7 -5 -9q-4 -3 -27 -3h-43 h-18q-12 0 -20 2q-7 1 -32 16l-135 86l-134 -86l-20 -12q-10 -7 -24 -7h-18h-62q-12 0 -17 3t-5 11zM404 546h331l-168 514z" />
<glyph unicode="&#xc3;" horiz-adv-x="1241" d="M27 39q0 34 47 45q42 9 59 24q16 15 30 56l380 1165q14 41 28 55q13 13 44 13q52 0 71 -61l386 -1172q21 -62 74 -76l31 -8q37 -10 37 -40q0 -40 -68 -40h-352q-35 0 -52 9q-16 7 -16 30q0 37 49 44l39 5q40 6 40 48q0 16 -10 47l-62 200q-14 44 -27 53q-15 9 -69 9h-231 q-54 0 -71 -12q-18 -14 -33 -64l-62 -205q-5 -20 -5 -31q0 -48 62 -53q31 -1 44 -10q12 -10 12 -32q0 -21 -14 -29q-15 -9 -47 -9h-251q-36 0 -50 9q-13 7 -13 30zM311 1564q0 46 26 90q25 43 69 70q44 26 89 26q53 0 134 -29l78 -29q31 -11 56 -11q42 0 70 49q7 12 15 17 q8 3 22 3l39 -1q22 -1 22 -23q0 -44 -27 -88q-27 -43 -70 -70q-43 -28 -90 -28q-55 0 -151 37q-90 32 -117 32q-46 0 -68 -49q-4 -12 -12 -17q-7 -4 -25 -4l-36 1q-24 0 -24 24zM404 546h331l-168 514z" />
<glyph unicode="&#xc4;" horiz-adv-x="1241" d="M27 39q0 34 47 45q42 9 59 24q16 15 30 56l380 1165q14 41 28 55q13 13 44 13q52 0 71 -61l386 -1172q21 -62 74 -76l31 -8q37 -10 37 -40q0 -40 -68 -40h-352q-35 0 -52 9q-16 7 -16 30q0 37 49 44l39 5q40 6 40 48q0 16 -10 47l-62 200q-14 44 -27 53q-15 9 -69 9h-231 q-54 0 -71 -12q-18 -14 -33 -64l-62 -205q-5 -20 -5 -31q0 -48 62 -53q31 -1 44 -10q12 -10 12 -32q0 -21 -14 -29q-15 -9 -47 -9h-251q-36 0 -50 9q-13 7 -13 30zM318 1654q0 51 34 85t85 34q50 0 84 -34t34 -84q0 -51 -34 -85t-84 -34q-51 0 -85 34t-34 84zM404 546h331 l-168 514zM686 1658q0 47 36 81q34 34 83 34t83 -33q34 -34 34 -83q0 -50 -33 -85q-34 -36 -83 -36q-51 0 -86 35q-34 34 -34 87z" />
<glyph unicode="&#xc5;" horiz-adv-x="1241" d="M27 39q0 34 47 45q42 9 59 24q16 15 30 56l380 1165q14 41 28 55q13 13 44 13q52 0 71 -61l386 -1172q21 -62 74 -76l31 -8q37 -10 37 -40q0 -40 -68 -40h-352q-35 0 -52 9q-16 7 -16 30q0 37 49 44l39 5q40 6 40 48q0 16 -10 47l-62 200q-14 44 -27 53q-15 9 -69 9h-231 q-54 0 -71 -12q-18 -14 -33 -64l-62 -205q-5 -20 -5 -31q0 -48 62 -53q31 -1 44 -10q12 -10 12 -32q0 -21 -14 -29q-15 -9 -47 -9h-251q-36 0 -50 9q-13 7 -13 30zM404 546h331l-168 514zM443 1667q0 48 24 90q24 41 66 65q41 24 89 24q46 0 88 -24q41 -24 65 -65 q23 -43 23 -89q0 -72 -51 -125t-125 -53q-48 0 -89 24q-42 24 -66 65t-24 88zM540 1668q0 -34 25 -56q24 -24 57 -24t55 24q23 25 23 55q0 32 -22 57q-22 24 -56 24q-32 0 -57 -23q-25 -24 -25 -57z" />
<glyph unicode="&#xc6;" horiz-adv-x="1658" d="M27 39q0 31 34 40l35 7q48 11 95 106l488 981q19 38 19 59q0 48 -91 52q-48 2 -48 39q0 28 24 38q7 4 56 4h811h42q20 0 30 -5q8 -7 14 -22l14 -33l39 -96q13 -27 13 -48q0 -15 -14 -26t-33 -11q-13 0 -21 6q-5 3 -28 31q-48 66 -84 84q-39 17 -126 17h-138q-45 0 -61 -2 q-12 -1 -25 -13q-21 -18 -21 -79v-353l228 2q77 0 77 -50q0 -36 -29 -48q-9 -3 -52 -3h-144q-38 0 -53 -6q-16 -6 -21 -23q-6 -16 -6 -57v-427q0 -38 1 -47q2 -14 4 -19q1 -6 8 -13q20 -21 87 -21h177q73 0 107 6t55 24q21 17 56 65q26 38 38 49q11 9 31 9q17 0 30 -10 t13 -26q0 -13 -11 -40l-55 -137q-7 -20 -16 -29q-8 -8 -22 -11q-13 -3 -50 -3h-741q-25 0 -39 11t-14 29q0 15 11 26q10 10 26 11l39 4q55 6 55 91v203q0 43 -13 53q-13 9 -72 9h-241q-47 0 -66 -11q-18 -10 -38 -51l-94 -200q-14 -33 -14 -49q0 -38 57 -43q56 -6 56 -42 q0 -41 -69 -41h-239q-47 0 -65 8q-16 7 -16 31zM493 544h348v653q0 28 -13 28q-8 0 -19 -23z" />
<glyph unicode="&#xc7;" horiz-adv-x="1162" d="M61 678q0 161 43 291q42 131 123 227q80 97 192 146q114 50 245 50q94 0 191 -27q24 -7 37 -7q14 0 39 21q24 21 44 21q37 0 53 -49l61 -193q9 -25 9 -37q0 -17 -14 -31q-15 -15 -34 -15q-12 0 -21 6q-8 5 -33 32q-64 70 -107 102q-46 35 -96 51q-48 16 -110 16 q-156 0 -254 -120q-61 -76 -96 -203q-34 -124 -34 -276q0 -173 51 -307q50 -133 144 -204t218 -71q90 0 159 34q70 33 143 106q28 28 52 28t40 -16q15 -16 15 -40q0 -29 -31 -66t-90 -78q-124 -86 -291 -95l-20 -59q58 -11 83 -36t25 -71q0 -54 -41 -86q-42 -33 -109 -33 q-61 0 -106 20q-44 20 -44 46q0 15 11 28q11 11 24 11q14 0 41 -10q30 -11 51 -11q54 0 54 44q0 39 -61 45q-36 3 -36 21q0 8 9 32l21 59q-164 13 -289 105q-126 93 -193 247q-68 156 -68 352z" />
<glyph unicode="&#xc8;" horiz-adv-x="1028" d="M61 40q0 34 38 37l39 4q56 6 56 91v1021q0 83 -56 91l-33 4q-15 1 -26 12t-11 25q0 18 14 29t39 11h715h28q26 0 37 -8q11 -7 18 -33l42 -106q14 -36 14 -45q0 -17 -13 -29q-13 -13 -33 -13q-27 0 -50 35q-40 58 -83 79t-129 21h-159q-62 0 -82 -19q-22 -19 -22 -75v-351 h233q73 0 73 -50q0 -27 -18 -38q-18 -12 -58 -12h-137q-65 0 -78 -13q-15 -13 -15 -72v-441q0 -54 20 -71q20 -18 80 -18h172q79 0 114 7q40 6 64 25q23 16 59 60q27 36 40 47q12 9 31 9q18 0 31 -10t13 -26q0 -10 -9 -36l-55 -136q-13 -31 -27 -39q-13 -7 -61 -7h-761 q-54 0 -54 40zM315 1772q0 20 34 20h130q28 0 36 -4q8 -5 11 -24l33 -194q0 -5 1 -7v-9q0 -13 -4 -17t-22 -4l-29 -1q-23 0 -30 4q-10 5 -17 15l-12 19l-123 180q-8 11 -8 22z" />
<glyph unicode="&#xc9;" horiz-adv-x="1028" d="M61 40q0 34 38 37l39 4q56 6 56 91v1021q0 83 -56 91l-33 4q-15 1 -26 12t-11 25q0 18 14 29t39 11h715h28q26 0 37 -8q11 -7 18 -33l42 -106q14 -36 14 -45q0 -17 -13 -29q-13 -13 -33 -13q-27 0 -50 35q-40 58 -83 79t-129 21h-159q-62 0 -82 -19q-22 -19 -22 -75v-351 h233q73 0 73 -50q0 -27 -18 -38q-18 -12 -58 -12h-137q-65 0 -78 -13q-15 -13 -15 -72v-441q0 -54 20 -71q20 -18 80 -18h172q79 0 114 7q40 6 64 25q23 16 59 60q27 36 40 47q12 9 31 9q18 0 31 -10t13 -26q0 -10 -9 -36l-55 -136q-13 -31 -27 -39q-13 -7 -61 -7h-761 q-54 0 -54 40zM473 1548q0 7 2 21l30 178q5 28 11 35q8 8 21 8h28h104q47 0 47 -22q0 -12 -14 -32l-118 -174q-15 -21 -22 -26q-9 -6 -28 -6h-29q-20 0 -25 4q-7 4 -7 14z" />
<glyph unicode="&#xca;" horiz-adv-x="1028" d="M61 40q0 34 38 37l39 4q56 6 56 91v1021q0 83 -56 91l-33 4q-15 1 -26 12t-11 25q0 18 14 29t39 11h715h28q26 0 37 -8q11 -7 18 -33l42 -106q14 -36 14 -45q0 -17 -13 -29q-13 -13 -33 -13q-27 0 -50 35q-40 58 -83 79t-129 21h-159q-62 0 -82 -19q-22 -19 -22 -75v-351 h233q73 0 73 -50q0 -27 -18 -38q-18 -12 -58 -12h-137q-65 0 -78 -13q-15 -13 -15 -72v-441q0 -54 20 -71q20 -18 80 -18h172q79 0 114 7q40 6 64 25q23 16 59 60q27 36 40 47q12 9 31 9q18 0 31 -10t13 -26q0 -10 -9 -36l-55 -136q-13 -31 -27 -39q-13 -7 -61 -7h-761 q-54 0 -54 40zM234 1539q0 7 3 10l10 8l234 215q23 21 33 21t24 -14l236 -216q20 -20 20 -25q0 -7 -5 -9q-4 -3 -27 -3h-43h-18q-12 0 -20 2q-7 1 -32 16l-135 86l-134 -86l-20 -12q-10 -7 -24 -7h-18h-62q-12 0 -17 3t-5 11z" />
<glyph unicode="&#xcb;" horiz-adv-x="1028" d="M61 40q0 34 38 37l39 4q56 6 56 91v1021q0 83 -56 91l-33 4q-15 1 -26 12t-11 25q0 18 14 29t39 11h715h28q26 0 37 -8q11 -7 18 -33l42 -106q14 -36 14 -45q0 -17 -13 -29q-13 -13 -33 -13q-27 0 -50 35q-40 58 -83 79t-129 21h-159q-62 0 -82 -19q-22 -19 -22 -75v-351 h233q73 0 73 -50q0 -27 -18 -38q-18 -12 -58 -12h-137q-65 0 -78 -13q-15 -13 -15 -72v-441q0 -54 20 -71q20 -18 80 -18h172q79 0 114 7q40 6 64 25q23 16 59 60q27 36 40 47q12 9 31 9q18 0 31 -10t13 -26q0 -10 -9 -36l-55 -136q-13 -31 -27 -39q-13 -7 -61 -7h-761 q-54 0 -54 40zM211 1654q0 51 34 85t85 34q50 0 84 -34t34 -84q0 -51 -34 -85t-84 -34q-51 0 -85 34t-34 84zM579 1658q0 47 36 81q34 34 83 34t83 -33q34 -34 34 -83q0 -50 -33 -85q-34 -36 -83 -36q-51 0 -86 35q-34 34 -34 87z" />
<glyph unicode="&#xcc;" horiz-adv-x="596" d="M61 40q0 34 38 37l37 4q56 6 56 91v1021q0 83 -56 91l-34 4q-15 1 -26 12t-11 25q0 18 14 29t39 11h364q25 0 39 -10q14 -11 14 -30q0 -15 -10 -25t-28 -12l-36 -4q-56 -6 -56 -91v-1021q0 -83 56 -91l35 -4q11 -2 20 -6q10 -7 14 -13q4 -7 4 -18q0 -18 -14 -29 q-16 -11 -39 -11h-366q-54 0 -54 40zM100 1772q0 20 34 20h130q28 0 36 -4q8 -5 11 -24l33 -194q0 -5 1 -7v-9q0 -13 -4 -17t-22 -4l-29 -1q-23 0 -30 4q-10 5 -17 15l-12 19l-123 180q-8 11 -8 22z" />
<glyph unicode="&#xcd;" horiz-adv-x="596" d="M61 40q0 34 38 37l37 4q56 6 56 91v1021q0 83 -56 91l-34 4q-15 1 -26 12t-11 25q0 18 14 29t39 11h364q25 0 39 -10q14 -11 14 -30q0 -15 -10 -25t-28 -12l-36 -4q-56 -6 -56 -91v-1021q0 -83 56 -91l35 -4q11 -2 20 -6q10 -7 14 -13q4 -7 4 -18q0 -18 -14 -29 q-16 -11 -39 -11h-366q-54 0 -54 40zM252 1548q0 7 2 21l30 178q5 28 11 35q8 8 21 8h28h104q47 0 47 -22q0 -12 -14 -32l-118 -174q-15 -21 -22 -26q-9 -6 -28 -6h-29q-20 0 -25 4q-7 4 -7 14z" />
<glyph unicode="&#xce;" horiz-adv-x="596" d="M18 1539q0 7 4 10l9 8l235 215q23 21 33 21t24 -14l236 -216q19 -18 19 -25t-5 -9q-4 -3 -27 -3h-43h-18q-13 0 -21 3q-8 1 -31 15l-134 86l-135 -86l-19 -12q-10 -7 -25 -7h-17h-62q-13 0 -18 3t-5 11zM61 40q0 34 38 37l37 4q56 6 56 91v1021q0 83 -56 91l-34 4 q-15 1 -26 12t-11 25q0 18 14 29t39 11h364q25 0 39 -10q14 -11 14 -30q0 -15 -10 -25t-28 -12l-36 -4q-56 -6 -56 -91v-1021q0 -83 56 -91l35 -4q11 -2 20 -6q10 -7 14 -13q4 -7 4 -18q0 -18 -14 -29q-16 -11 -39 -11h-366q-54 0 -54 40z" />
<glyph unicode="&#xcf;" horiz-adv-x="596" d="M-4 1654q0 51 34 85t85 34q50 0 84 -34t34 -84q0 -51 -34 -85t-84 -34q-51 0 -85 34t-34 84zM62 40q0 34 38 37l37 4q56 6 56 91v1021q0 83 -56 91l-34 4q-15 1 -26 12t-11 25q0 18 14 29t39 11h364q25 0 39 -10q14 -11 14 -30q0 -15 -10 -25t-28 -12l-36 -4 q-56 -6 -56 -91v-1021q0 -83 56 -91l35 -4q11 -2 20 -6q10 -7 14 -13q4 -7 4 -18q0 -18 -14 -29q-16 -11 -39 -11h-366q-54 0 -54 40zM364 1658q0 47 36 81q34 34 83 34t83 -33q34 -34 34 -83q0 -50 -33 -85q-34 -36 -83 -36q-51 0 -86 35q-34 34 -34 87z" />
<glyph unicode="&#xd1;" horiz-adv-x="1334" d="M61 1324q0 24 14 33q14 8 48 8h152q48 0 65 -7q18 -8 37 -39l642 -897v771q0 83 -56 91l-34 4q-38 3 -38 37q0 40 54 40h281q26 0 40 -10q14 -11 14 -30q0 -16 -10 -25q-11 -11 -28 -12l-36 -4q-55 -6 -55 -91v-1147q0 -47 -8 -60q-7 -13 -36 -13l-37 1q-23 0 -31 8 q-10 8 -11 26q-3 46 -12 74q-10 26 -36 65l-637 889v-864q0 -83 56 -91l34 -4q11 -2 20 -6q10 -7 14 -13q4 -7 4 -18q0 -18 -14 -29q-16 -11 -39 -11h-283q-54 0 -54 40q0 34 38 37l36 4q56 6 56 91v1047q-27 39 -41 50q-15 10 -38 12l-27 3q-44 6 -44 40zM359 1564 q0 46 26 90q25 43 69 70q44 26 89 26q53 0 134 -29l78 -29q31 -11 56 -11q42 0 70 49q7 12 15 17q8 3 22 3l39 -1q22 -1 22 -23q0 -44 -27 -88q-27 -43 -70 -70q-43 -28 -90 -28q-55 0 -151 37q-90 32 -117 32q-46 0 -68 -49q-4 -12 -12 -17q-7 -4 -25 -4l-36 1 q-24 0 -24 24z" />
<glyph unicode="&#xd2;" horiz-adv-x="1433" d="M61 677q0 162 47 297q46 133 132 226q86 94 210 143q123 49 274 49q152 0 273 -48q60 -24 112 -60t92 -80q84 -93 127 -223q43 -129 43 -296q0 -163 -46 -294q-46 -133 -132 -226q-84 -92 -206 -142q-121 -50 -271 -50q-147 0 -270 50q-124 50 -209 144q-86 94 -131 222 q-45 129 -45 288zM303 673q0 -133 28 -239q29 -112 83 -186q55 -78 130 -116q75 -39 169 -39q253 0 360 257q60 143 60 335q0 117 -24 225q-26 110 -71 185q-35 59 -84 100q-49 40 -107 59q-60 20 -127 20q-131 0 -225 -71q-93 -71 -143 -207q-49 -135 -49 -323zM528 1772 q0 20 34 20h130q28 0 36 -4q8 -5 11 -24l33 -194q0 -5 1 -7v-9q0 -13 -4 -17t-22 -4l-29 -1q-23 0 -30 4q-10 5 -17 15l-12 19l-123 180q-8 11 -8 22z" />
<glyph unicode="&#xd3;" horiz-adv-x="1433" d="M61 677q0 162 47 297q46 133 132 226q86 94 210 143q123 49 274 49q152 0 273 -48q60 -24 112 -60t92 -80q84 -93 127 -223q43 -129 43 -296q0 -163 -46 -294q-46 -133 -132 -226q-84 -92 -206 -142q-121 -50 -271 -50q-147 0 -270 50q-124 50 -209 144q-86 94 -131 222 q-45 129 -45 288zM303 673q0 -133 28 -239q29 -112 83 -186q55 -78 130 -116q75 -39 169 -39q253 0 360 257q60 143 60 335q0 117 -24 225q-26 110 -71 185q-35 59 -84 100q-49 40 -107 59q-60 20 -127 20q-131 0 -225 -71q-93 -71 -143 -207q-49 -135 -49 -323zM675 1548 q0 7 2 21l30 178q5 28 11 35q8 8 21 8h28h104q47 0 47 -22q0 -12 -14 -32l-118 -174q-15 -21 -22 -26q-9 -6 -28 -6h-29q-20 0 -25 4q-7 4 -7 14z" />
<glyph unicode="&#xd4;" horiz-adv-x="1433" d="M61 677q0 162 47 297q46 133 132 226q86 94 210 143q123 49 274 49q152 0 273 -48q60 -24 112 -60t92 -80q84 -93 127 -223q43 -129 43 -296q0 -163 -46 -294q-46 -133 -132 -226q-84 -92 -206 -142q-121 -50 -271 -50q-147 0 -270 50q-124 50 -209 144q-86 94 -131 222 q-45 129 -45 288zM303 673q0 -133 28 -239q29 -112 83 -186q55 -78 130 -116q75 -39 169 -39q253 0 360 257q60 143 60 335q0 117 -24 225q-26 110 -71 185q-35 59 -84 100q-49 40 -107 59q-60 20 -127 20q-131 0 -225 -71q-93 -71 -143 -207q-49 -135 -49 -323zM435 1539 q0 7 3 10l10 8l234 215q23 21 33 21t24 -14l236 -216q20 -20 20 -25q0 -7 -5 -9q-4 -3 -27 -3h-43h-18q-12 0 -20 2q-7 1 -32 16l-135 86l-134 -86l-20 -12q-10 -7 -24 -7h-18h-62q-12 0 -17 3t-5 11z" />
<glyph unicode="&#xd5;" horiz-adv-x="1433" d="M61 677q0 162 47 297q46 133 132 226q86 94 210 143q123 49 274 49q152 0 273 -48q60 -24 112 -60t92 -80q84 -93 127 -223q43 -129 43 -296q0 -163 -46 -294q-46 -133 -132 -226q-84 -92 -206 -142q-121 -50 -271 -50q-147 0 -270 50q-124 50 -209 144q-86 94 -131 222 q-45 129 -45 288zM303 673q0 -133 28 -239q29 -112 83 -186q55 -78 130 -116q75 -39 169 -39q253 0 360 257q60 143 60 335q0 117 -24 225q-26 110 -71 185q-35 59 -84 100q-49 40 -107 59q-60 20 -127 20q-131 0 -225 -71q-93 -71 -143 -207q-49 -135 -49 -323zM405 1564 q0 46 26 90q25 43 69 70q44 26 89 26q53 0 134 -29l78 -29q31 -11 56 -11q42 0 70 49q7 12 15 17q8 3 22 3l39 -1q22 -1 22 -23q0 -44 -27 -88q-27 -43 -70 -70q-43 -28 -90 -28q-55 0 -151 37q-90 32 -117 32q-46 0 -68 -49q-4 -12 -12 -17q-7 -4 -25 -4l-36 1 q-24 0 -24 24z" />
<glyph unicode="&#xd6;" horiz-adv-x="1433" d="M61 677q0 162 47 297q46 133 132 226q86 94 210 143q123 49 274 49q152 0 273 -48q60 -24 112 -60t92 -80q84 -93 127 -223q43 -129 43 -296q0 -163 -46 -294q-46 -133 -132 -226q-84 -92 -206 -142q-121 -50 -271 -50q-147 0 -270 50q-124 50 -209 144q-86 94 -131 222 q-45 129 -45 288zM303 673q0 -133 28 -239q29 -112 83 -186q55 -78 130 -116q75 -39 169 -39q253 0 360 257q60 143 60 335q0 117 -24 225q-26 110 -71 185q-35 59 -84 100q-49 40 -107 59q-60 20 -127 20q-131 0 -225 -71q-93 -71 -143 -207q-49 -135 -49 -323zM413 1654 q0 51 34 85t85 34q50 0 84 -34t34 -84q0 -51 -34 -85t-84 -34q-51 0 -85 34t-34 84zM781 1658q0 47 36 81q34 34 83 34t83 -33q34 -34 34 -83q0 -50 -33 -85q-34 -36 -83 -36q-51 0 -86 35q-34 34 -34 87z" />
<glyph unicode="&#xd7;" horiz-adv-x="0" />
<glyph unicode="&#xfd;" horiz-adv-x="0" />
<glyph unicode="&#xd8;" horiz-adv-x="1433" d="M62 682q0 163 46 294q46 132 130 224q88 94 209 142q124 50 272 50q89 0 155 -12q68 -14 138 -47l76 136q8 14 24 14q8 0 12 -3l63 -32q15 -7 15 -24q0 -7 -4 -14l-78 -139q123 -90 187 -240t64 -349q0 -159 -45 -290q-46 -131 -132 -226q-84 -93 -207 -143t-265 -50 q-166 0 -285 54l-82 -150q-7 -15 -24 -15q-9 0 -13 4l-61 33q-14 8 -14 24q0 7 3 13l83 151q-62 45 -113 108q-52 64 -85 141q-35 78 -52 163q-17 87 -17 183zM302 670q0 -124 29 -234q28 -108 84 -191l527 959q-53 36 -108 53q-51 16 -116 16q-102 0 -182 -43t-130 -123 q-49 -79 -76 -197q-28 -115 -28 -240zM506 154q107 -63 214 -63q114 0 197 56q84 56 140 169q77 152 77 362q0 88 -14 177q-13 80 -37 148q-18 47 -53 104z" />
<glyph unicode="&#xd9;" horiz-adv-x="1314" d="M55 1325q0 18 14 29t39 11h362q25 0 39 -10q14 -11 14 -30q0 -15 -10 -25t-28 -12l-36 -4q-56 -6 -56 -91v-674q0 -155 9 -203q14 -68 53 -116q40 -51 102 -76q63 -27 141 -27q83 0 156 35q72 35 104 91q31 53 38 107q8 58 8 189v674q0 83 -56 91l-31 4q-38 3 -38 37 q0 19 15 29q16 11 38 11h274q25 0 39 -10q14 -11 14 -30q0 -15 -10 -25t-28 -12l-34 -4q-56 -8 -56 -91v-674q0 -150 -14 -228q-13 -75 -57 -140q-57 -86 -160 -132q-102 -46 -240 -46q-142 0 -255 51q-113 50 -164 137q-48 83 -54 189q-3 62 -3 169v674q0 85 -56 91l-36 4 q-15 1 -26 12t-11 25zM487 1772q0 20 34 20h130q28 0 36 -4q8 -5 11 -24l33 -194q0 -5 1 -7v-9q0 -13 -4 -17t-22 -4l-29 -1q-23 0 -30 4q-10 5 -17 15l-12 19l-123 180q-8 11 -8 22z" />
<glyph unicode="&#xda;" horiz-adv-x="1314" d="M55 1325q0 18 14 29t39 11h362q25 0 39 -10q14 -11 14 -30q0 -15 -10 -25t-28 -12l-36 -4q-56 -6 -56 -91v-674q0 -155 9 -203q14 -68 53 -116q40 -51 102 -76q63 -27 141 -27q83 0 156 35q72 35 104 91q31 53 38 107q8 58 8 189v674q0 83 -56 91l-31 4q-38 3 -38 37 q0 19 15 29q16 11 38 11h274q25 0 39 -10q14 -11 14 -30q0 -15 -10 -25t-28 -12l-34 -4q-56 -8 -56 -91v-674q0 -150 -14 -228q-13 -75 -57 -140q-57 -86 -160 -132q-102 -46 -240 -46q-142 0 -255 51q-113 50 -164 137q-48 83 -54 189q-3 62 -3 169v674q0 85 -56 91l-36 4 q-15 1 -26 12t-11 25zM656 1548q0 7 2 21l30 178q5 28 11 35q8 8 21 8h28h104q47 0 47 -22q0 -12 -14 -32l-118 -174q-15 -21 -22 -26q-9 -6 -28 -6h-29q-20 0 -25 4q-7 4 -7 14z" />
<glyph unicode="&#xdb;" horiz-adv-x="1314" d="M55 1325q0 18 14 29t39 11h362q25 0 39 -10q14 -11 14 -30q0 -15 -10 -25t-28 -12l-36 -4q-56 -6 -56 -91v-674q0 -155 9 -203q14 -68 53 -116q40 -51 102 -76q63 -27 141 -27q83 0 156 35q72 35 104 91q31 53 38 107q8 58 8 189v674q0 83 -56 91l-31 4q-38 3 -38 37 q0 19 15 29q16 11 38 11h274q25 0 39 -10q14 -11 14 -30q0 -15 -10 -25t-28 -12l-34 -4q-56 -8 -56 -91v-674q0 -150 -14 -228q-13 -75 -57 -140q-57 -86 -160 -132q-102 -46 -240 -46q-142 0 -255 51q-113 50 -164 137q-48 83 -54 189q-3 62 -3 169v674q0 85 -56 91l-36 4 q-15 1 -26 12t-11 25zM384 1539q0 7 3 10l10 8l234 215q23 21 33 21t24 -14l236 -216q20 -20 20 -25q0 -7 -5 -9q-4 -3 -27 -3h-43h-18q-12 0 -20 2q-7 1 -32 16l-135 86l-134 -86l-20 -12q-10 -7 -24 -7h-18h-62q-12 0 -17 3t-5 11z" />
<glyph unicode="&#xdc;" horiz-adv-x="1314" d="M55 1325q0 18 14 29t39 11h362q25 0 39 -10q14 -11 14 -30q0 -15 -10 -25t-28 -12l-36 -4q-56 -6 -56 -91v-674q0 -155 9 -203q14 -68 53 -116q40 -51 102 -76q63 -27 141 -27q83 0 156 35q72 35 104 91q31 53 38 107q8 58 8 189v674q0 83 -56 91l-31 4q-38 3 -38 37 q0 19 15 29q16 11 38 11h274q25 0 39 -10q14 -11 14 -30q0 -15 -10 -25t-28 -12l-34 -4q-56 -8 -56 -91v-674q0 -150 -14 -228q-13 -75 -57 -140q-57 -86 -160 -132q-102 -46 -240 -46q-142 0 -255 51q-113 50 -164 137q-48 83 -54 189q-3 62 -3 169v674q0 85 -56 91l-36 4 q-15 1 -26 12t-11 25zM361 1654q0 51 34 85t85 34q50 0 84 -34t34 -84q0 -51 -34 -85t-84 -34q-51 0 -85 34t-34 84zM729 1658q0 47 36 81q34 34 83 34t83 -33q34 -34 34 -83q0 -50 -33 -85q-34 -36 -83 -36q-51 0 -86 35q-34 34 -34 87z" />
<glyph unicode="&#xdd;" horiz-adv-x="1173" d="M27 1326q0 22 14 31q14 8 49 8h354q34 0 48 -8q13 -9 13 -29q0 -36 -51 -41q-76 -7 -76 -45q0 -19 13 -42l247 -477l232 477q11 24 11 40q0 42 -66 45q-58 1 -58 40q0 25 15 32q14 8 55 8h261q58 0 58 -36q0 -38 -50 -43q-63 -7 -102 -86l-297 -603v-425q0 -85 56 -91 l39 -4q17 -1 28 -11q10 -10 10 -26q0 -18 -14 -29q-16 -11 -39 -11h-366q-54 0 -54 40q0 34 38 37l36 4q55 7 55 91v425l-306 603q-26 54 -42 67q-16 14 -60 18q-51 6 -51 41zM541 1532q0 7 2 21l30 178q5 28 11 35q8 8 21 8h28h104q47 0 47 -22q0 -12 -14 -32l-118 -174 q-15 -21 -22 -26q-9 -6 -28 -6h-29q-20 0 -25 4q-7 4 -7 14z" />
<glyph unicode="&#xdf;" horiz-adv-x="1056" d="M55 796q0 22 11 31q11 8 40 8h77v219q0 139 38 206q37 61 108 94q72 32 166 32q152 0 240 -71q86 -72 86 -197q0 -75 -33 -131q-32 -54 -110 -106q-45 -30 -60 -47q-17 -20 -17 -40q0 -26 26 -55q25 -29 100 -86q115 -87 169 -142q61 -62 82 -115q23 -57 23 -126 q0 -84 -40 -151q-40 -66 -111 -104q-71 -37 -164 -37q-73 0 -135 24q-64 24 -98 66q-36 41 -36 91q0 23 14 40q14 15 36 15q19 0 29 -9q8 -8 25 -39q49 -91 146 -91q66 0 112 46q47 47 47 113q0 69 -52 134q-53 67 -187 168q-60 46 -83 68q-23 19 -45 47q-20 24 -29 47 q-8 21 -8 46q0 73 67 134q57 52 79 76q23 24 36 48q34 58 34 128q0 75 -36 120q-37 45 -99 45q-37 0 -69 -18q-34 -20 -48 -50q-14 -31 -20 -65q-7 -35 -7 -94v-1027q0 -41 -41 -41h-224q-36 0 -36 34q0 33 35 36l47 2q26 3 35 19q8 18 8 64v533q0 48 -9 58q-11 11 -48 11 h-22q-49 0 -49 39z" />
<glyph unicode="&#xe0;" horiz-adv-x="861" d="M55 218q0 76 40 140q39 63 115 108q53 31 118 52q60 19 110 19q51 0 51 -41q0 -29 -41 -40q-95 -21 -151 -80q-55 -58 -55 -141q0 -70 38 -114t99 -44q47 0 84 25t53 65q20 52 20 151v274q0 156 -154 156q-51 0 -90 -12q-42 -13 -107 -52q-23 -14 -41 -14q-13 0 -27 15 q-13 13 -13 31q0 36 66 75q107 62 256 62q150 0 222 -63q37 -31 52 -75q14 -45 14 -119v-441q0 -46 8 -64q7 -16 35 -19l28 -2q35 -5 35 -36q0 -34 -36 -34h-199q-20 0 -26 8q-7 7 -7 26l-1 36q-47 -47 -101 -68q-53 -22 -124 -22q-122 0 -196 67q-75 66 -75 171zM232 1238 q0 20 34 20h130q28 0 36 -4q8 -5 11 -24l33 -194q0 -5 1 -7v-9q0 -13 -4 -17t-22 -4l-29 -1q-23 0 -30 4q-10 5 -17 15l-12 19l-123 180q-8 11 -8 22z" />
<glyph unicode="&#xe1;" horiz-adv-x="861" d="M55 218q0 76 40 140q39 63 115 108q53 31 118 52q60 19 110 19q51 0 51 -41q0 -29 -41 -40q-95 -21 -151 -80q-55 -58 -55 -141q0 -70 38 -114t99 -44q47 0 84 25t53 65q20 52 20 151v274q0 156 -154 156q-51 0 -90 -12q-42 -13 -107 -52q-23 -14 -41 -14q-13 0 -27 15 q-13 13 -13 31q0 36 66 75q107 62 256 62q150 0 222 -63q37 -31 52 -75q14 -45 14 -119v-441q0 -46 8 -64q7 -16 35 -19l28 -2q35 -5 35 -36q0 -34 -36 -34h-199q-20 0 -26 8q-7 7 -7 26l-1 36q-47 -47 -101 -68q-53 -22 -124 -22q-122 0 -196 67q-75 66 -75 171zM387 1021 q0 7 2 21l30 178q5 28 11 35q8 8 21 8h28h104q47 0 47 -22q0 -12 -14 -32l-118 -174q-15 -21 -22 -26q-9 -6 -28 -6h-29q-20 0 -25 4q-7 4 -7 14z" />
<glyph unicode="&#xe2;" horiz-adv-x="861" d="M55 218q0 76 40 140q39 63 115 108q53 31 118 52q60 19 110 19q51 0 51 -41q0 -29 -41 -40q-95 -21 -151 -80q-55 -58 -55 -141q0 -70 38 -114t99 -44q47 0 84 25t53 65q20 52 20 151v274q0 156 -154 156q-51 0 -90 -12q-42 -13 -107 -52q-23 -14 -41 -14q-13 0 -27 15 q-13 13 -13 31q0 36 66 75q107 62 256 62q150 0 222 -63q37 -31 52 -75q14 -45 14 -119v-441q0 -46 8 -64q7 -16 35 -19l28 -2q35 -5 35 -36q0 -34 -36 -34h-199q-20 0 -26 8q-7 7 -7 26l-1 36q-47 -47 -101 -68q-53 -22 -124 -22q-122 0 -196 67q-75 66 -75 171zM151 1008 q0 7 3 10l10 8l234 215q23 21 33 21t24 -14l236 -216q20 -20 20 -25q0 -7 -5 -9q-4 -3 -27 -3h-43h-18q-12 0 -20 2q-7 1 -32 16l-135 86l-134 -86l-20 -12q-10 -7 -24 -7h-18h-62q-12 0 -17 3t-5 11z" />
<glyph unicode="&#xe3;" horiz-adv-x="861" d="M55 218q0 76 40 140q39 63 115 108q53 31 118 52q60 19 110 19q51 0 51 -41q0 -29 -41 -40q-95 -21 -151 -80q-55 -58 -55 -141q0 -70 38 -114t99 -44q47 0 84 25t53 65q20 52 20 151v274q0 156 -154 156q-51 0 -90 -12q-42 -13 -107 -52q-23 -14 -41 -14q-13 0 -27 15 q-13 13 -13 31q0 36 66 75q107 62 256 62q150 0 222 -63q37 -31 52 -75q14 -45 14 -119v-441q0 -46 8 -64q7 -16 35 -19l28 -2q35 -5 35 -36q0 -34 -36 -34h-199q-20 0 -26 8q-7 7 -7 26l-1 36q-47 -47 -101 -68q-53 -22 -124 -22q-122 0 -196 67q-75 66 -75 171zM121 1047 q0 46 26 90q25 43 69 70q44 26 89 26q53 0 134 -29l78 -29q31 -11 56 -11q42 0 70 49q7 12 15 17q8 3 22 3l39 -1q22 -1 22 -23q0 -44 -27 -88q-27 -43 -70 -70q-43 -28 -90 -28q-55 0 -151 37q-90 32 -117 32q-46 0 -68 -49q-4 -12 -12 -17q-7 -4 -25 -4l-36 1 q-24 0 -24 24z" />
<glyph unicode="&#xe4;" horiz-adv-x="861" d="M55 218q0 76 40 140q39 63 115 108q53 31 118 52q60 19 110 19q51 0 51 -41q0 -29 -41 -40q-95 -21 -151 -80q-55 -58 -55 -141q0 -70 38 -114t99 -44q47 0 84 25t53 65q20 52 20 151v274q0 156 -154 156q-51 0 -90 -12q-42 -13 -107 -52q-23 -14 -41 -14q-13 0 -27 15 q-13 13 -13 31q0 36 66 75q107 62 256 62q150 0 222 -63q37 -31 52 -75q14 -45 14 -119v-441q0 -46 8 -64q7 -16 35 -19l28 -2q35 -5 35 -36q0 -34 -36 -34h-199q-20 0 -26 8q-7 7 -7 26l-1 36q-47 -47 -101 -68q-53 -22 -124 -22q-122 0 -196 67q-75 66 -75 171zM129 1128 q0 51 34 85t85 34q50 0 84 -34t34 -84q0 -51 -34 -85t-84 -34q-51 0 -85 34t-34 84zM497 1132q0 47 36 81q34 34 83 34t83 -33q34 -34 34 -83q0 -50 -33 -85q-34 -36 -83 -36q-51 0 -86 35q-34 34 -34 87z" />
<glyph unicode="&#xe5;" horiz-adv-x="861" d="M55 218q0 76 40 140q39 63 115 108q53 31 118 52q60 19 110 19q51 0 51 -41q0 -29 -41 -40q-95 -21 -151 -80q-55 -58 -55 -141q0 -70 38 -114t99 -44q47 0 84 25t53 65q20 52 20 151v274q0 156 -154 156q-51 0 -90 -12q-42 -13 -107 -52q-23 -14 -41 -14q-13 0 -27 15 q-13 13 -13 31q0 36 66 75q107 62 256 62q150 0 222 -63q37 -31 52 -75q14 -45 14 -119v-441q0 -46 8 -64q7 -16 35 -19l28 -2q35 -5 35 -36q0 -34 -36 -34h-199q-20 0 -26 8q-7 7 -7 26l-1 36q-47 -47 -101 -68q-53 -22 -124 -22q-122 0 -196 67q-75 66 -75 171zM253 1128 q0 48 24 90q24 41 66 65q41 24 89 24q46 0 88 -24q41 -24 65 -65q23 -43 23 -89q0 -72 -51 -125t-125 -53q-48 0 -89 24q-42 24 -66 65t-24 88zM350 1129q0 -34 25 -56q24 -24 57 -24t55 24q23 25 23 55q0 32 -22 57q-22 24 -56 24q-32 0 -57 -23q-25 -24 -25 -57z" />
<glyph unicode="&#xe6;" horiz-adv-x="1314" d="M55 216q0 93 62 169q62 74 170 117q84 33 152 33q55 0 55 -41q0 -20 -12 -28q-17 -9 -53 -20q-186 -54 -186 -214q0 -68 40 -114q39 -46 99 -46q57 0 94 34q38 35 50 96q12 63 12 293q0 134 -16 172q-15 34 -53 57q-37 21 -84 21q-83 0 -174 -53q-46 -27 -63 -27 q-18 0 -31 13t-13 32q0 32 49 66q48 33 122 56q74 21 147 21q89 0 146 -21q58 -22 104 -70q61 48 125 70q62 21 136 21q65 0 122 -19q59 -20 104 -53q45 -35 71 -77q25 -43 25 -90q0 -40 -19 -63q-20 -25 -84 -62l-259 -153l-20 -12q-22 -13 -40 -13q-17 0 -31 15 q-13 14 -13 35q0 25 26 40l30 19l125 78q49 31 69 59q19 25 19 62q0 61 -39 101t-99 40q-59 0 -106 -42q-47 -44 -72 -119q-26 -78 -26 -177q0 -162 67 -253q68 -93 184 -93q58 0 106 22q51 23 111 76q30 27 48 27q17 0 29 -13t12 -31q0 -13 -14 -33q-12 -19 -38 -43 q-31 -27 -53 -40q-109 -68 -236 -68q-180 0 -290 129q-52 -64 -125 -96q-75 -32 -172 -32q-131 0 -210 67q-80 66 -80 175z" />
<glyph unicode="&#xe7;" horiz-adv-x="841" d="M55 415q0 128 51 227t143 156q92 56 207 56q72 0 143 -23q24 -8 31 -8q11 0 30 17q19 19 36 19q32 0 42 -43l31 -150q3 -15 3 -24q0 -32 -35 -32q-22 0 -46 28q-61 73 -105 98q-46 26 -106 26q-105 0 -165 -92q-61 -91 -61 -251q0 -153 67 -241q68 -90 179 -90 q97 0 176 66q51 42 58 46q8 5 22 5q18 0 32 -14q12 -15 12 -33q0 -33 -43 -72q-42 -39 -111 -68q-68 -29 -136 -36l-22 -67q58 -11 83 -36t25 -71q0 -54 -41 -86q-42 -33 -109 -33q-61 0 -106 20q-44 20 -44 46q0 15 11 28q11 11 24 11q14 0 41 -10q30 -11 51 -11 q54 0 54 44q0 39 -61 45q-36 3 -36 21q0 6 9 32l23 67q-106 11 -187 68q-82 57 -126 153t-44 212z" />
<glyph unicode="&#xe8;" horiz-adv-x="867" d="M55 419q0 128 53 229t147 156t217 55q139 0 232 -72q44 -33 72 -78q27 -45 27 -89q0 -55 -94 -110l-295 -174q-29 -17 -44 -17q-18 0 -32 14t-14 33q0 17 11 31q10 12 37 28l154 93q45 28 66 55q18 26 18 58q0 36 -19 67q-18 30 -51 50q-32 19 -70 19q-101 0 -160 -93 q-59 -94 -59 -252q0 -159 68 -250q67 -91 188 -91q57 0 117 26q56 24 107 74q31 29 53 29q18 0 30 -12t12 -29q0 -43 -72 -100q-116 -89 -273 -89q-129 0 -224 55q-97 55 -149 155q-53 100 -53 229zM273 1238q0 20 34 20h130q28 0 36 -4q8 -5 11 -24l33 -194q0 -5 1 -7v-9 q0 -13 -4 -17t-22 -4l-29 -1q-23 0 -30 4q-10 5 -17 15l-12 19l-123 180q-8 11 -8 22z" />
<glyph unicode="&#xe9;" horiz-adv-x="867" d="M55 419q0 128 53 229t147 156t217 55q139 0 232 -72q44 -33 72 -78q27 -45 27 -89q0 -55 -94 -110l-295 -174q-29 -17 -44 -17q-18 0 -32 14t-14 33q0 17 11 31q10 12 37 28l154 93q45 28 66 55q18 26 18 58q0 36 -19 67q-18 30 -51 50q-32 19 -70 19q-101 0 -160 -93 q-59 -94 -59 -252q0 -159 68 -250q67 -91 188 -91q57 0 117 26q56 24 107 74q31 29 53 29q18 0 30 -12t12 -29q0 -43 -72 -100q-116 -89 -273 -89q-129 0 -224 55q-97 55 -149 155q-53 100 -53 229zM428 1016q0 7 2 21l30 178q5 28 11 35q8 8 21 8h28h104q47 0 47 -22 q0 -12 -14 -32l-118 -174q-15 -21 -22 -26q-9 -6 -28 -6h-29q-20 0 -25 4q-7 4 -7 14z" />
<glyph unicode="&#xea;" horiz-adv-x="867" d="M55 419q0 128 53 229t147 156t217 55q139 0 232 -72q44 -33 72 -78q27 -45 27 -89q0 -55 -94 -110l-295 -174q-29 -17 -44 -17q-18 0 -32 14t-14 33q0 17 11 31q10 12 37 28l154 93q45 28 66 55q18 26 18 58q0 36 -19 67q-18 30 -51 50q-32 19 -70 19q-101 0 -160 -93 q-59 -94 -59 -252q0 -159 68 -250q67 -91 188 -91q57 0 117 26q56 24 107 74q31 29 53 29q18 0 30 -12t12 -29q0 -43 -72 -100q-116 -89 -273 -89q-129 0 -224 55q-97 55 -149 155q-53 100 -53 229zM186 1008q0 7 3 10l10 8l234 215q23 21 33 21t24 -14l236 -216 q20 -20 20 -25q0 -7 -5 -9q-4 -3 -27 -3h-43h-18q-12 0 -20 2q-7 1 -32 16l-135 86l-134 -86l-20 -12q-10 -7 -24 -7h-18h-62q-12 0 -17 3t-5 11z" />
<glyph unicode="&#xeb;" horiz-adv-x="867" d="M55 419q0 128 53 229t147 156t217 55q139 0 232 -72q44 -33 72 -78q27 -45 27 -89q0 -55 -94 -110l-295 -174q-29 -17 -44 -17q-18 0 -32 14t-14 33q0 17 11 31q10 12 37 28l154 93q45 28 66 55q18 26 18 58q0 36 -19 67q-18 30 -51 50q-32 19 -70 19q-101 0 -160 -93 q-59 -94 -59 -252q0 -159 68 -250q67 -91 188 -91q57 0 117 26q56 24 107 74q31 29 53 29q18 0 30 -12t12 -29q0 -43 -72 -100q-116 -89 -273 -89q-129 0 -224 55q-97 55 -149 155q-53 100 -53 229zM159 1128q0 51 34 85t85 34q50 0 84 -34t34 -84q0 -51 -34 -85t-84 -34 q-51 0 -85 34t-34 84zM527 1132q0 47 36 81q34 34 83 34t83 -33q34 -34 34 -83q0 -50 -33 -85q-34 -36 -83 -36q-51 0 -86 35q-34 34 -34 87z" />
<glyph unicode="&#xec;" horiz-adv-x="497" d="M34 1238q0 20 34 20h130q28 0 36 -4q8 -5 11 -24l33 -194q0 -5 1 -7v-9q0 -13 -4 -17t-22 -4l-29 -1q-23 0 -30 4q-10 5 -17 15l-12 19l-123 180q-8 11 -8 22zM55 34q0 33 35 36l30 2q26 3 35 19q8 18 8 64v485q0 35 -13 48q-12 12 -50 14q-43 1 -43 33q0 13 7 20 q6 6 36 20l167 69q27 11 36 11q24 0 31 -13q6 -13 6 -59v-628q0 -47 9 -64q7 -16 34 -19l32 -2q15 -2 25 -10q9 -10 9 -26q0 -34 -36 -34h-322q-36 0 -36 34z" />
<glyph unicode="&#xed;" horiz-adv-x="497" d="M55 34q0 33 35 36l30 2q26 3 35 19q8 18 8 64v485q0 35 -13 48q-12 12 -50 14q-43 1 -43 33q0 13 7 20q6 6 36 20l167 69q27 11 36 11q24 0 31 -13q6 -13 6 -59v-628q0 -47 9 -64q7 -16 34 -19l32 -2q15 -2 25 -10q9 -10 9 -26q0 -34 -36 -34h-322q-36 0 -36 34z M188 1016q0 7 2 21l30 178q5 28 11 35q8 8 21 8h28h104q47 0 47 -22q0 -12 -14 -32l-118 -174q-15 -21 -22 -26q-9 -6 -28 -6h-29q-20 0 -25 4q-7 4 -7 14z" />
<glyph unicode="&#xee;" horiz-adv-x="497" d="M-31 1008q0 7 3 10l10 8l234 215q23 21 33 21t24 -14l236 -216q20 -20 20 -25q0 -7 -5 -9q-4 -3 -27 -3h-43h-18q-12 0 -20 2q-7 1 -32 16l-135 86l-134 -86l-20 -12q-10 -7 -24 -7h-18h-62q-12 0 -17 3t-5 11zM55 34q0 33 35 36l30 2q26 3 35 19q8 18 8 64v485 q0 35 -13 48q-12 12 -50 14q-43 1 -43 33q0 13 7 20q6 6 36 20l167 69q27 11 36 11q24 0 31 -13q6 -13 6 -59v-628q0 -47 9 -64q7 -16 34 -19l32 -2q15 -2 25 -10q9 -10 9 -26q0 -34 -36 -34h-322q-36 0 -36 34z" />
<glyph unicode="&#xef;" horiz-adv-x="497" d="M-53 1128q0 51 34 85t85 34q50 0 84 -34t34 -84q0 -51 -34 -85t-84 -34q-51 0 -85 34t-34 84zM55 34q0 33 35 36l30 2q26 3 35 19q8 18 8 64v485q0 35 -13 48q-12 12 -50 14q-43 1 -43 33q0 13 7 20q6 6 36 20l167 69q27 11 36 11q24 0 31 -13q6 -13 6 -59v-628 q0 -47 9 -64q7 -16 34 -19l32 -2q15 -2 25 -10q9 -10 9 -26q0 -34 -36 -34h-322q-36 0 -36 34zM315 1132q0 47 36 81q34 34 83 34t83 -33q34 -34 34 -83q0 -50 -33 -85q-34 -36 -83 -36q-51 0 -86 35q-34 34 -34 87z" />
<glyph unicode="&#xf1;" horiz-adv-x="995" d="M55 34q0 33 35 36l31 2q26 3 35 19q8 18 8 64v467q0 49 -12 65t-49 16q-43 0 -43 33q0 22 21 31l24 10l159 69q26 12 40 12q38 0 38 -48v-64q68 60 127 85q57 23 135 23q126 0 187 -67q31 -32 41 -75q11 -46 11 -125v-432v-28q1 -27 11 -40q9 -12 31 -15l34 -2 q15 -2 25 -10q10 -10 10 -26q0 -34 -36 -34h-322q-37 0 -37 34q0 31 35 36l29 2q26 3 35 19q8 18 8 64v397q0 100 -29 143q-28 42 -101 42q-56 0 -100 -32q-45 -33 -69 -92q-25 -59 -25 -142v-316q0 -46 8 -64q7 -16 34 -19l28 -2q35 -5 35 -36q0 -34 -36 -34h-320 q-36 0 -36 34zM188 1047q0 46 26 90q25 43 69 70q44 26 89 26q53 0 134 -29l78 -29q31 -11 56 -11q42 0 70 49q7 12 15 17q8 3 22 3l39 -1q22 -1 22 -23q0 -44 -27 -88q-27 -43 -70 -70q-43 -28 -90 -28q-55 0 -151 37q-90 32 -117 32q-46 0 -68 -49q-4 -12 -12 -17 q-7 -4 -25 -4l-36 1q-24 0 -24 24z" />
<glyph unicode="&#xf2;" horiz-adv-x="980" d="M55 418q0 130 53 231t150 153t229 52q100 0 184 -29q80 -28 139 -85q56 -56 86 -136q29 -82 29 -184q0 -101 -30 -184q-31 -82 -91 -142q-55 -56 -132 -85q-79 -29 -182 -29q-218 0 -325 122q-110 125 -110 316zM248 412q0 -105 29 -183t84 -120q56 -42 127 -42 q75 0 130 43t85 124q29 81 29 187q0 102 -29 181q-29 77 -83 119q-55 41 -124 41q-119 0 -183 -91q-65 -92 -65 -259zM286 1238q0 20 34 20h130q28 0 36 -4q8 -5 11 -24l33 -194q0 -5 1 -7v-9q0 -13 -4 -17t-22 -4l-29 -1q-23 0 -30 4q-10 5 -17 15l-12 19l-123 180 q-8 11 -8 22z" />
<glyph unicode="&#xf3;" horiz-adv-x="980" d="M55 418q0 130 53 231t150 153t229 52q100 0 184 -29q80 -28 139 -85q56 -56 86 -136q29 -82 29 -184q0 -101 -30 -184q-31 -82 -91 -142q-55 -56 -132 -85q-79 -29 -182 -29q-218 0 -325 122q-110 125 -110 316zM248 412q0 -105 29 -183t84 -120q56 -42 127 -42 q75 0 130 43t85 124q29 81 29 187q0 102 -29 181q-29 77 -83 119q-55 41 -124 41q-119 0 -183 -91q-65 -92 -65 -259zM435 1016q0 7 2 21l30 178q5 28 11 35q8 8 21 8h28h104q47 0 47 -22q0 -12 -14 -32l-118 -174q-15 -21 -22 -26q-9 -6 -28 -6h-29q-20 0 -25 4q-7 4 -7 14 z" />
<glyph unicode="&#xf4;" horiz-adv-x="980" d="M55 418q0 130 53 231t150 153t229 52q100 0 184 -29q80 -28 139 -85q56 -56 86 -136q29 -82 29 -184q0 -101 -30 -184q-31 -82 -91 -142q-55 -56 -132 -85q-79 -29 -182 -29q-218 0 -325 122q-110 125 -110 316zM210 1008q0 7 3 10l10 8l234 215q23 21 33 21t24 -14 l236 -216q20 -20 20 -25q0 -7 -5 -9q-4 -3 -27 -3h-43h-18q-12 0 -20 2q-7 1 -32 16l-135 86l-134 -86l-20 -12q-10 -7 -24 -7h-18h-62q-12 0 -17 3t-5 11zM248 412q0 -105 29 -183t84 -120q56 -42 127 -42q75 0 130 43t85 124q29 81 29 187q0 102 -29 181q-29 77 -83 119 q-55 41 -124 41q-119 0 -183 -91q-65 -92 -65 -259z" />
<glyph unicode="&#xf5;" horiz-adv-x="980" d="M55 418q0 130 53 231t150 153t229 52q100 0 184 -29q80 -28 139 -85q56 -56 86 -136q29 -82 29 -184q0 -101 -30 -184q-31 -82 -91 -142q-55 -56 -132 -85q-79 -29 -182 -29q-218 0 -325 122q-110 125 -110 316zM180 1047q0 46 26 90q25 43 69 70q44 26 89 26 q53 0 134 -29l78 -29q31 -11 56 -11q42 0 70 49q7 12 15 17q8 3 22 3l39 -1q22 -1 22 -23q0 -44 -27 -88q-27 -43 -70 -70q-43 -28 -90 -28q-55 0 -151 37q-90 32 -117 32q-46 0 -68 -49q-4 -12 -12 -17q-7 -4 -25 -4l-36 1q-24 0 -24 24zM248 412q0 -105 29 -183t84 -120 q56 -42 127 -42q75 0 130 43t85 124q29 81 29 187q0 102 -29 181q-29 77 -83 119q-55 41 -124 41q-119 0 -183 -91q-65 -92 -65 -259z" />
<glyph unicode="&#xf6;" horiz-adv-x="980" d="M55 418q0 130 53 231t150 153t229 52q100 0 184 -29q80 -28 139 -85q56 -56 86 -136q29 -82 29 -184q0 -101 -30 -184q-31 -82 -91 -142q-55 -56 -132 -85q-79 -29 -182 -29q-218 0 -325 122q-110 125 -110 316zM188 1128q0 51 34 85t85 34q50 0 84 -34t34 -84 q0 -51 -34 -85t-84 -34q-51 0 -85 34t-34 84zM248 412q0 -105 29 -183t84 -120q56 -42 127 -42q75 0 130 43t85 124q29 81 29 187q0 102 -29 181q-29 77 -83 119q-55 41 -124 41q-119 0 -183 -91q-65 -92 -65 -259zM556 1132q0 47 36 81q34 34 83 34t83 -33q34 -34 34 -83 q0 -50 -33 -85q-34 -36 -83 -36q-51 0 -86 35q-34 34 -34 87z" />
<glyph unicode="&#xf7;" d="M68 0v1365h683v-1365h-683zM82 14h655v1337h-655v-1337z" />
<glyph unicode="&#xf8;" horiz-adv-x="980" d="M54 422q0 107 41 200q41 92 113 151q104 85 280 85q75 0 122 -10q48 -10 96 -35l71 106q6 9 17 9q7 0 11 -3l44 -29q10 -4 10 -17q0 -6 -4 -11l-70 -105q141 -118 141 -339q0 -184 -98 -303q-117 -141 -349 -141q-32 0 -59 3q-28 1 -55 9q-28 6 -71 21l-72 -109 q-4 -9 -17 -9q-5 0 -10 3l-46 28q-10 7 -10 18q0 7 4 11l68 104q-76 58 -116 153q-41 97 -41 210zM249 420q0 -151 47 -231l343 522q-64 58 -148 58q-74 0 -129 -41q-55 -40 -84 -120q-29 -81 -29 -188zM357 111q62 -45 126 -45q78 0 133 42q56 41 86 121t30 189 q0 117 -37 207z" />
<glyph unicode="&#xf9;" horiz-adv-x="988" d="M41 729q0 15 10 25q11 10 35 18l159 58q36 13 46 13q34 0 34 -61v-463q0 -106 11 -147t45 -65q35 -24 83 -24q53 0 93 24q39 22 61 65q28 52 28 151v320q0 35 -12 47q-13 11 -47 11q-48 2 -48 33q0 23 22 32l22 9l159 67q29 13 47 13q21 0 28 -12q7 -13 7 -46v-642l1 -28 q1 -50 42 -55l31 -2q35 -3 35 -36q0 -34 -36 -34h-201q-20 0 -27 7t-7 27v50q-93 -105 -257 -105q-132 0 -197 65q-36 38 -48 86q-12 50 -12 158v341q0 62 -38 65l-29 1q-40 3 -40 34zM286 1238q0 20 34 20h130q28 0 36 -4q8 -5 11 -24l33 -194q0 -5 1 -7v-9q0 -13 -4 -17 t-22 -4l-29 -1q-23 0 -30 4q-10 5 -17 15l-12 19l-123 180q-8 11 -8 22z" />
<glyph unicode="&#xfa;" horiz-adv-x="988" d="M41 729q0 15 10 25q11 10 35 18l159 58q36 13 46 13q34 0 34 -61v-463q0 -106 11 -147t45 -65q35 -24 83 -24q53 0 93 24q39 22 61 65q28 52 28 151v320q0 35 -12 47q-13 11 -47 11q-48 2 -48 33q0 23 22 32l22 9l159 67q29 13 47 13q21 0 28 -12q7 -13 7 -46v-642l1 -28 q1 -50 42 -55l31 -2q35 -3 35 -36q0 -34 -36 -34h-201q-20 0 -27 7t-7 27v50q-93 -105 -257 -105q-132 0 -197 65q-36 38 -48 86q-12 50 -12 158v341q0 62 -38 65l-29 1q-40 3 -40 34zM430 1016q0 7 2 21l30 178q5 28 11 35q8 8 21 8h28h104q47 0 47 -22q0 -12 -14 -32 l-118 -174q-15 -21 -22 -26q-9 -6 -28 -6h-29q-20 0 -25 4q-7 4 -7 14z" />
<glyph unicode="&#xfb;" horiz-adv-x="988" d="M41 729q0 15 10 25q11 10 35 18l159 58q36 13 46 13q34 0 34 -61v-463q0 -106 11 -147t45 -65q35 -24 83 -24q53 0 93 24q39 22 61 65q28 52 28 151v320q0 35 -12 47q-13 11 -47 11q-48 2 -48 33q0 23 22 32l22 9l159 67q29 13 47 13q21 0 28 -12q7 -13 7 -46v-642l1 -28 q1 -50 42 -55l31 -2q35 -3 35 -36q0 -34 -36 -34h-201q-20 0 -27 7t-7 27v50q-93 -105 -257 -105q-132 0 -197 65q-36 38 -48 86q-12 50 -12 158v341q0 62 -38 65l-29 1q-40 3 -40 34zM211 1008q0 7 3 10l10 8l234 215q23 21 33 21t24 -14l236 -216q20 -20 20 -25 q0 -7 -5 -9q-4 -3 -27 -3h-43h-18q-12 0 -20 2q-7 1 -32 16l-135 86l-134 -86l-20 -12q-10 -7 -24 -7h-18h-62q-12 0 -17 3t-5 11z" />
<glyph unicode="&#xfc;" horiz-adv-x="988" d="M41 729q0 15 10 25q11 10 35 18l159 58q36 13 46 13q34 0 34 -61v-463q0 -106 11 -147t45 -65q35 -24 83 -24q53 0 93 24q39 22 61 65q28 52 28 151v320q0 35 -12 47q-13 11 -47 11q-48 2 -48 33q0 23 22 32l22 9l159 67q29 13 47 13q21 0 28 -12q7 -13 7 -46v-642l1 -28 q1 -50 42 -55l31 -2q35 -3 35 -36q0 -34 -36 -34h-201q-20 0 -27 7t-7 27v50q-93 -105 -257 -105q-132 0 -197 65q-36 38 -48 86q-12 50 -12 158v341q0 62 -38 65l-29 1q-40 3 -40 34zM188 1128q0 51 34 85t85 34q50 0 84 -34t34 -84q0 -51 -34 -85t-84 -34q-51 0 -85 34 t-34 84zM556 1132q0 47 36 81q34 34 83 34t83 -33q34 -34 34 -83q0 -50 -33 -85q-34 -36 -83 -36q-51 0 -86 35q-34 34 -34 87z" />
<glyph unicode="&#xff;" horiz-adv-x="963" d="M27 800q0 22 11 28q12 5 51 5h289q30 0 40 -7t10 -26q0 -32 -40 -35q-60 -4 -60 -42q0 -21 13 -50l196 -445l172 438q13 30 13 50q0 40 -62 48q-50 5 -50 37t53 32h221q52 0 52 -30q0 -28 -36 -37q-37 -9 -53 -25q-18 -18 -34 -60l-411 -1027l-9 -23q-7 -20 -18 -24 q-10 -6 -45 -6h-83q-28 0 -37 4q-11 3 -11 15t19 35q116 152 219 350l10 20l-291 656l-11 24q-24 50 -69 57q-29 6 -39 14q-10 7 -10 24zM192 1128q0 51 34 85t85 34q50 0 84 -34t34 -84q0 -51 -34 -85t-84 -34q-51 0 -85 34t-34 84zM560 1132q0 47 36 81q34 34 83 34 t83 -33q34 -34 34 -83q0 -50 -33 -85q-34 -36 -83 -36q-51 0 -86 35q-34 34 -34 87z" />
<glyph unicode="&#x152;" horiz-adv-x="1784" d="M61 679q0 168 51 312q50 143 144 234q82 81 201 122q116 40 275 40q59 0 108 -6l59 -7q78 -9 140 -9h554l34 1q22 0 32 -8t20 -36l43 -112q13 -32 13 -40q0 -16 -15 -28q-14 -13 -33 -13q-17 0 -25 7q-11 8 -27 31q-37 57 -84 78q-48 20 -140 20h-141q-47 0 -71 -8 t-32 -31q-9 -24 -9 -73v-332h236q39 0 56 -11q15 -12 15 -39q0 -26 -15 -38q-16 -12 -51 -12h-145q-61 0 -78 -15q-18 -15 -18 -66v-428q0 -48 9 -71q7 -21 33 -29t85 -8h198q59 0 86 7q28 7 52 30q24 24 63 76q28 40 57 40q20 0 32 -9q11 -11 11 -25q0 -16 -13 -48 l-48 -117q-17 -43 -29 -50q-14 -8 -62 -8h-578h-67q-59 0 -143 -10q-93 -8 -141 -8q-305 0 -466 182q-89 101 -132 229q-44 129 -44 286zM294 680q0 -141 30 -251q30 -111 87 -187q56 -79 138 -119q82 -41 183 -41q64 0 112 15q46 13 68 40q19 22 27 59q7 32 7 110v760 q0 70 -6 103q-6 32 -26 54q-53 59 -183 59q-227 0 -334 -179q-103 -169 -103 -423z" />
<glyph unicode="&#x153;" horiz-adv-x="1521" d="M55 416q0 134 53 234q52 98 150 151q97 52 233 52q107 0 184 -34q78 -34 132 -105q64 76 140 111q75 33 175 33q86 0 164 -32t124 -87t46 -116q0 -36 -24 -63q-23 -27 -86 -64l-263 -155q-40 -25 -62 -25q-15 0 -29 15q-15 14 -15 32q0 20 10 30q14 14 44 31l154 94 q79 48 79 113q0 57 -43 96q-44 38 -104 38q-62 0 -112 -42q-51 -43 -76 -117q-27 -75 -27 -177q0 -111 30 -189q30 -79 89 -120q59 -42 138 -42q67 0 119 24q52 23 119 87q22 22 41 22q18 0 30 -12t12 -30q0 -40 -53 -85q-123 -105 -297 -105q-213 0 -323 141 q-66 -75 -144 -108q-79 -33 -187 -33q-125 0 -222 53q-51 29 -86.5 65.5t-61.5 87.5q-51 99 -51 231zM248 421q0 -108 29 -189t82 -122q52 -43 125 -43q104 0 165 97q62 98 62 259q0 159 -62 253q-63 92 -169 92q-70 0 -122 -43q-53 -44 -81 -121q-29 -79 -29 -183z" />
<glyph unicode="&#x178;" horiz-adv-x="1173" d="M27 1326q0 22 14 31q14 8 49 8h354q34 0 48 -8q13 -9 13 -29q0 -36 -51 -41q-76 -7 -76 -45q0 -19 13 -42l247 -477l232 477q11 24 11 40q0 42 -66 45q-58 1 -58 40q0 25 15 32q14 8 55 8h261q58 0 58 -36q0 -38 -50 -43q-63 -7 -102 -86l-297 -603v-425q0 -85 56 -91 l39 -4q17 -1 28 -11q10 -10 10 -26q0 -18 -14 -29q-16 -11 -39 -11h-366q-54 0 -54 40q0 34 38 37l36 4q55 7 55 91v425l-306 603q-26 54 -42 67q-16 14 -60 18q-51 6 -51 41zM296 1654q0 51 34 85t85 34q50 0 84 -34t34 -84q0 -51 -34 -85t-84 -34q-51 0 -85 34t-34 84z M664 1658q0 47 36 81q34 34 83 34t83 -33q34 -34 34 -83q0 -50 -33 -85q-34 -36 -83 -36q-51 0 -86 35q-34 34 -34 87z" />
<glyph unicode="&#x2c6;" horiz-adv-x="833" d="M137 1008q0 7 3 10l10 8l234 215q23 21 33 21t24 -14l236 -216q20 -20 20 -25q0 -7 -5 -9q-4 -3 -27 -3h-43h-18q-12 0 -20 2q-7 1 -32 16l-135 86l-134 -86l-20 -12q-10 -7 -24 -7h-18h-62q-12 0 -17 3t-5 11z" />
<glyph unicode="&#x2dc;" horiz-adv-x="894" d="M137 1047q0 46 26 90q25 43 69 70q44 26 89 26q53 0 134 -29l78 -29q31 -11 56 -11q42 0 70 49q7 12 15 17q8 3 22 3l39 -1q22 -1 22 -23q0 -44 -27 -88q-27 -43 -70 -70q-43 -28 -90 -28q-55 0 -151 37q-90 32 -117 32q-46 0 -68 -49q-4 -12 -12 -17q-7 -4 -25 -4l-36 1 q-24 0 -24 24z" />
<glyph unicode="&#x2013;" horiz-adv-x="1348" d="M82 425v81q0 27 27 27h1130q27 0 27 -27v-81q0 -12 -8 -20q-9 -9 -19 -9h-1130q-10 0 -18 9q-9 8 -9 20z" />
<glyph unicode="&#x2014;" horiz-adv-x="2211" d="M82 429v77q0 27 27 27h1993q27 0 27 -27v-77q0 -11 -8 -22q-9 -11 -19 -11h-1993q-10 0 -18 11q-9 11 -9 22z" />
<glyph unicode="&#x2018;" horiz-adv-x="482" d="M106 1056q0 144 95 272q46 64 78 64q18 0 29 -10q11 -11 11 -27q0 -14 -13 -33l-24 -35q-26 -40 -40 -73q-17 -40 -17 -61q0 -27 28 -33l42 -9q36 -8 58 -39q23 -34 23 -78q0 -54 -35 -91q-34 -36 -91 -36q-63 0 -104 51q-40 50 -40 138z" />
<glyph unicode="&#x2019;" horiz-adv-x="482" d="M106 1265q0 56 36 92q35 35 90 35q66 0 105 -51t39 -139q0 -73 -22 -138q-21 -63 -73 -134q-48 -63 -77 -63q-16 0 -29 11q-12 11 -12 25q0 15 13 34l24 34q25 38 40 74q17 39 17 60q0 27 -28 34l-42 9q-35 7 -58 39t-23 78z" />
<glyph unicode="&#x201a;" d="M68 0v1365h683v-1365h-683zM82 14h655v1337h-655v-1337z" />
<glyph unicode="&#x201c;" horiz-adv-x="827" d="M106 1068q0 130 97 263q44 59 82 59q11 0 18 -4q8 -5 13 -13q4 -7 4 -18q0 -14 -16 -36q-34 -50 -55 -95q-23 -51 -23 -73q0 -27 35 -35q59 -9 88 -38q28 -29 28 -84q0 -56 -36 -92q-37 -37 -91 -37q-68 0 -105 55q-39 54 -39 148zM450 1063q0 67 25 135q26 68 72 132 q44 60 78 60q16 0 27 -10q12 -10 12 -26q0 -13 -15 -33q-78 -109 -78 -169q0 -16 8 -24q7 -7 31 -12q111 -19 111 -117q0 -58 -36 -96t-91 -38q-65 0 -104 55q-40 53 -40 143z" />
<glyph unicode="&#x201d;" horiz-adv-x="827" d="M106 1259q0 56 35 94q34 37 89 37q68 0 108 -51q40 -50 40 -136q0 -136 -85 -261q-52 -76 -90 -76q-14 0 -27 11q-12 11 -12 23q0 17 19 42q27 39 52 91q22 45 22 69q0 21 -9 28q-7 6 -38 11q-104 20 -104 118zM448 1259q0 57 35 95q35 36 92 36q67 0 107 -52 q39 -52 39 -140q0 -132 -91 -262q-51 -71 -85 -71q-14 0 -27 11q-12 11 -12 23q0 15 21 46q73 110 73 158q0 17 -8 25q-8 7 -35 13q-51 10 -72 31q-37 34 -37 87z" />
<glyph unicode="&#x201e;" horiz-adv-x="827" d="M106 118q0 57 35 95q34 37 89 37q68 0 108 -51q40 -50 40 -137q0 -136 -85 -260q-52 -76 -90 -76q-14 0 -27 11q-12 10 -12 23q0 16 19 42q34 51 53 92q21 45 21 67q0 19 -9 27q-9 7 -38 12q-104 20 -104 118zM448 119q0 58 36 95q35 36 91 36q67 0 107 -52 q39 -52 39 -141q0 -131 -91 -261q-51 -71 -85 -71q-16 0 -27 10q-12 10 -12 23q0 15 21 47q73 109 73 157q0 17 -8 25q-8 7 -35 13q-44 11 -49 14q-12 6 -23 17q-37 34 -37 88z" />
<glyph unicode="&#x2022;" horiz-adv-x="705" d="M89 708q0 102 79 181q80 80 183 80q72 0 133 -36q60 -36 96 -95q36 -60 36 -130q0 -74 -35 -133q-36 -60 -97 -94q-62 -35 -133 -35q-113 0 -187 74q-75 74 -75 188z" />
<glyph unicode="&#x2026;" horiz-adv-x="2048" d="M209 121q0 51 39 88q38 37 92 37q53 0 94 -38q39 -39 39 -91q0 -36 -17 -67q-18 -30 -48 -48q-31 -18 -65 -18q-56 0 -95 40q-39 41 -39 97zM892 121q0 51 39 88q38 37 92 37q52 0 93 -38q40 -37 40 -91q0 -56 -38 -94q-39 -39 -93 -39q-57 0 -94 40q-39 39 -39 97z M1574 121q0 51 39 88q38 37 92 37q53 0 94 -38q39 -39 39 -91q0 -36 -17 -67q-18 -30 -48 -48q-31 -18 -65 -18q-56 0 -95 40q-39 41 -39 97z" />
<glyph unicode="&#x2039;" horiz-adv-x="474" d="M82 440q0 9 21 45l141 241q3 5 6 11q1 2 2.5 3.5t1.5 3.5q9 16 17 21q8 3 29 3h55q36 0 36 -15q0 -5 -3 -13l-8 -21l-105 -279l108 -296l7 -21q2 -6 2 -8q0 -15 -29 -15h-12h-49h-16q-9 1 -15 4q-4 1 -8 8q-1 5 -5.5 11t-7.5 11l-150 260q-18 32 -18 46z" />
<glyph unicode="&#x203a;" horiz-adv-x="474" d="M82 115q0 7 1 8l8 21l107 296l-104 279q-2 6 -3 10l-2 4q-1 3 -3 7q-3 8 -3 13q0 15 36 15h54q23 0 31 -4q9 -4 16 -20q2 -5 10 -18l141 -241q21 -36 21 -45q0 -15 -19 -46l-149 -260q-12 -23 -18 -29q-3 -3 -18 -5h-17h-48h-12q-29 0 -29 15z" />
<glyph unicode="&#x2122;" d="M68 0v1365h683v-1365h-683zM82 14h655v1337h-655v-1337z" />
<glyph unicode="&#xe000;" horiz-adv-x="835" d="M0 835h835v-835h-835v835z" />
<glyph unicode="&#xfb01;" horiz-adv-x="1022" d="M34 795q0 22 15 32q14 9 48 9h70v311q0 120 61 181q62 62 179 62q51 0 98 -16q50 -17 77 -40q29 -26 29 -52q0 -18 -14 -32t-29 -14q-13 0 -27 10l-32 20q-34 22 -68 22q-52 0 -75 -30q-22 -31 -22 -101v-321h106q38 0 54 -8q14 -8 14 -30q0 -23 -15 -32t-58 -9h-41 q-39 0 -50 -12q-10 -13 -10 -71v-519q0 -48 9 -65t34 -18l57 -2q36 -1 36 -36q0 -34 -36 -34h-363q-36 0 -36 34q0 33 35 36l44 2q28 3 35 19q8 16 8 64v510q0 60 -10 76t-46 16h-25q-52 0 -52 38zM580 34q0 33 35 36l30 2q26 3 35 19q8 18 8 64v485q0 35 -13 48 q-12 12 -50 14q-43 1 -43 33q0 13 7 20q6 6 36 20l167 69q27 11 36 11q24 0 31 -13q6 -13 6 -59v-628q0 -47 9 -64q7 -16 34 -19l32 -2q15 -2 25 -10q9 -10 9 -26q0 -34 -36 -34h-322q-36 0 -36 34zM653 1193q0 45 35 80q35 33 82 33q32 0 58 -16t42 -42t16 -57 q0 -48 -33 -83t-82 -35q-51 0 -84 36q-34 34 -34 84z" />
<glyph unicode="&#xfb02;" horiz-adv-x="1022" d="M34 795q0 22 15 32q14 9 48 9h70v311q0 120 61 181q62 62 179 62q51 0 98 -16q50 -17 77 -40q29 -26 29 -52q0 -18 -14 -32t-29 -14q-13 0 -27 10l-32 20q-34 22 -68 22q-52 0 -75 -30q-22 -31 -22 -101v-321h106q38 0 54 -8q14 -8 14 -30q0 -23 -15 -32t-58 -9h-41 q-39 0 -50 -12q-10 -13 -10 -71v-519q0 -48 9 -65t34 -18l57 -2q36 -1 36 -36q0 -34 -36 -34h-363q-36 0 -36 34q0 33 35 36l44 2q28 3 35 19q8 16 8 64v510q0 60 -10 76t-46 16h-25q-52 0 -52 38zM580 34q0 33 35 36l30 2q26 3 35 19q8 18 8 64v977l-1 39q0 35 -12 47 q-14 11 -56 14q-35 2 -35 33q0 14 8 22q7 7 36 19l157 67l22 9q8 4 23 4q22 0 29 -13q6 -13 6 -48v-1170q0 -47 9 -64q7 -16 34 -19l32 -2q15 -2 25 -10q9 -10 9 -26q0 -34 -36 -34h-322q-36 0 -36 34z" />
<glyph unicode="&#xfb03;" horiz-adv-x="1547" d="M34 795q0 22 15 32q14 9 48 9h70v311q0 120 61 181q62 62 179 62q51 0 98 -16q50 -17 77 -40q29 -26 29 -52q0 -18 -14 -32t-29 -14q-13 0 -27 10l-32 20q-34 22 -68 22q-52 0 -75 -30q-22 -31 -22 -101v-321h106q38 0 54 -8q14 -8 14 -30q0 -23 -15 -32t-58 -9h-41 q-39 0 -50 -12q-10 -13 -10 -71v-519q0 -48 9 -65t34 -18l57 -2q36 -1 36 -36q0 -34 -36 -34h-363q-36 0 -36 34q0 33 35 36l44 2q28 3 35 19q8 16 8 64v510q0 60 -10 76t-46 16h-25q-52 0 -52 38zM559 795q0 22 15 32q14 9 48 9h70v311q0 120 61 181q62 62 179 62 q51 0 98 -16q50 -17 77 -40q29 -26 29 -52q0 -18 -14 -32t-29 -14q-13 0 -27 10l-32 20q-34 22 -68 22q-52 0 -75 -30q-22 -31 -22 -101v-321h106q38 0 54 -8q14 -8 14 -30q0 -23 -15 -32t-58 -9h-41q-39 0 -50 -12q-10 -13 -10 -71v-519q0 -48 9 -65t34 -18l57 -2 q36 -1 36 -36q0 -34 -36 -34h-363q-36 0 -36 34q0 33 35 36l44 2q28 3 35 19q8 16 8 64v510q0 60 -10 76t-46 16h-25q-52 0 -52 38zM1105 34q0 33 35 36l30 2q26 3 35 19q8 18 8 64v485q0 35 -13 48q-12 12 -50 14q-43 1 -43 33q0 13 7 20q6 6 36 20l167 69q27 11 36 11 q24 0 31 -13q6 -13 6 -59v-628q0 -47 9 -64q7 -16 34 -19l32 -2q15 -2 25 -10q9 -10 9 -26q0 -34 -36 -34h-322q-36 0 -36 34zM1178 1193q0 45 35 80q35 33 82 33q32 0 58 -16t42 -42t16 -57q0 -48 -33 -83t-82 -35q-51 0 -84 36q-34 34 -34 84z" />
<glyph unicode="&#xfb04;" horiz-adv-x="1547" d="M34 795q0 22 15 32q14 9 48 9h70v311q0 120 61 181q62 62 179 62q51 0 98 -16q50 -17 77 -40q29 -26 29 -52q0 -18 -14 -32t-29 -14q-13 0 -27 10l-32 20q-34 22 -68 22q-52 0 -75 -30q-22 -31 -22 -101v-321h106q38 0 54 -8q14 -8 14 -30q0 -23 -15 -32t-58 -9h-41 q-39 0 -50 -12q-10 -13 -10 -71v-519q0 -48 9 -65t34 -18l57 -2q36 -1 36 -36q0 -34 -36 -34h-363q-36 0 -36 34q0 33 35 36l44 2q28 3 35 19q8 16 8 64v510q0 60 -10 76t-46 16h-25q-52 0 -52 38zM559 795q0 22 15 32q14 9 48 9h70v311q0 120 61 181q62 62 179 62 q51 0 98 -16q50 -17 77 -40q29 -26 29 -52q0 -18 -14 -32t-29 -14q-13 0 -27 10l-32 20q-34 22 -68 22q-52 0 -75 -30q-22 -31 -22 -101v-321h106q38 0 54 -8q14 -8 14 -30q0 -23 -15 -32t-58 -9h-41q-39 0 -50 -12q-10 -13 -10 -71v-519q0 -48 9 -65t34 -18l57 -2 q36 -1 36 -36q0 -34 -36 -34h-363q-36 0 -36 34q0 33 35 36l44 2q28 3 35 19q8 16 8 64v510q0 60 -10 76t-46 16h-25q-52 0 -52 38zM1105 34q0 33 35 36l30 2q26 3 35 19q8 18 8 64v977l-1 39q0 35 -12 47q-14 11 -56 14q-35 2 -35 33q0 14 8 22q7 7 36 19l157 67l22 9 q8 4 23 4q22 0 29 -13q6 -13 6 -48v-1170q0 -47 9 -64q7 -16 34 -19l32 -2q15 -2 25 -10q9 -10 9 -26q0 -34 -36 -34h-322q-36 0 -36 34z" />
</font>
</defs>
</svg>
